<mxfile host="app.diagrams.net" agent="Mozilla/5.0 (X11; Linux x86_64; rv:135.0) Gecko/20100101 Firefox/135.0" version="27.0.6">
  <diagram name="Page-1" id="TNiIl9FwDybylzVuDjJI">
    <mxGraphModel dx="2037" dy="1091" grid="1" gridSize="10" guides="1" tooltips="1" connect="1" arrows="1" fold="1" page="1" pageScale="1" pageWidth="827" pageHeight="1169" math="0" shadow="0">
      <root>
        <mxCell id="0" />
        <mxCell id="1" parent="0" />
        <mxCell id="JTipTrV-5EOtWfRyUD3_-1" value="" style="shape=image;verticalLabelPosition=bottom;labelBackgroundColor=default;verticalAlign=top;aspect=fixed;imageAspect=0;image=data:image/png,iVBORw0KGgoAAAANSUhEUgAABfwAAAFrCAYAAACE6EhqAAAKFXpUWHRSYXcgcHJvZmlsZSB0eXBlIGV4aWYAAHjapZhbdiM5DkT/uYpeAl8gyOXwAZ4zO5jlz0VKdpdd9dHukSxlisnkAxGIQDrYf/9zw1+8cos1VNHeRmuRVx115MlJj6/XfL5TrM/387o7yrv1S3to632aORaO5XWht9cxfbS/b/g4psmZ/DJQ3+8L6+uFUV/H3L8NlF+H4ivy8/MeaLwHKvl1Ib0HmK9txTa6/rqFZa/j+/5XGPgE/6r967J/+61E7wjzlJytpBL5LuW9gOIfCWVyInznQjjoVDmvtD3t78EIyJ/i9PkarOj6UusfO31B5fPsG1rlHZrwHa2a313KtyC3z+Mf20OSbxfK5/z515lr/6TJl/ZzXqwL8Vv0/XPv6ffZM7uYtRHq9t7UxxafM/otpvCpe2BpLSofYQh93oN3h9UbKpy44+K900gZuG6q6aSZbrLnuNNmiTVbyMpJzhvQvLEXzSPv8sKPd7pZyyindHDdD+y15M+1pGfaEXd4ZuvMfBJdc2KwxC0/foef3nCv452SxxLo0wvfnD3YLMOR82+6gUi676DKE+CP9/eX41pAUDzKniKDwK7XEEvS30pQHqALHYXjKweTnvcAhIiphcWkAgKgloqklqLmrCkRyA5Ak6XnUvMCgSSSD4vMtZQGNj371Nyi6emaJdMcaEfMQEJKKwo2o0zAqlXgj9YOh6YUqSLSRKXLkNlKq01aa9pcFKcWrUFFm6p2HTp76bVLb11776PPkUdBNGW0oaOPMeZkzsnIk7snHeZceZVVl4TVlq6+xpob+uy6Zbetu++x58mnHPTjtKOnn3GmJYNKVk2smVq3YfNCtVvCrVduu3r7HXd+ovaG9bf3D1BLb9Tyg5R31E/UaFX9GCK5nIhjBmA51ATi6hBA6OyYxZ5qzY6cYxZHJisks0hxzE5yxECwWspy0wd2Ib8QdeT+L9yC1i+45X+LXHDofojc77j9CbXjNrQfxF5Z6EGNhey7NRW2cTLr5g5+VFVCjEHP0sI4+R5bgvCYmegdUq0SJh1NssvRyrHfKTqY0/IctjPhG1eS1gY8npPaw92TfSWbB/XatuXuolOXnkM+6nFBaHPtYUmWlmvTLIvcq5110riPrNtPmISxSjcCkYtqs5hHTfvaEGjWz2wCkJrarp1F9FkGGW/0ueRnuhsw4l0D1Pq55Hdh4jUGEe8e/jXmsbrNOgHHOTUNPoIpdL2yhkoDZQLhrCBQLVS7+2gkzvGsSeDxBpy/7c0NEymxvOfULnBJW+vcaXjCvaCZLtkxjAj1G+pIesskDnnclaqUvYy4tn020mVdCyscqcGRckycIO0kSFVvlXTaPHVNbWEC6DWQGaMku5INHoxRV751NWZpfW6mqGfXRtZtq9pyZh3XWiKww8OkK5AnY1GFVesHpzFuu3KqI0EZAeOITI40lMVvaODzZ9ut3agyFEsTNHSEBoTlqEepE4o1e1qz9oIDggeJpqgv3SfBz3vQqcVBqsHpyTQNPuXWLIdDU+6TPyLCpqt4sfXPjupufIsN2BbWrgU2e+DZld5Zz2IWSAVotxE902pLIeDQp6Oj2ruRfJOMSXAMZzlI7QEeElvtcseQw0RztTLuSduK6BK/VW1ugKwn611gXE+xs4gpLF0gEq6gKHXEAon7XEx8pwrioGm2vG9u9+DxZ3Xog7BQIJxYygIMMukqbCALxgg+24lzQfZaIUBO6zyUhEwnSuMGKr+UN0SvTNlJzraRhL7v3mW52KFbLSA/SmLbi9EnQvmKTjavXNIoT1hROdZP2hK4izSfxbaX90dZ5KhBuHBzujqtLEoaZUHQ+OphvXRLh26kYO/1DLNYRpKxL2UOSsgCkiLf48Y2hfooru1JKpAksdSDc3RDuoEQUp2WSeXkRsHGY/Z+6HZfFWmLcsT2Sgvmhr5I41ZI16jOCKJldRFa1zLW4q5iSEhEotgoSkPBTRbcMUm6h4An2ohhPmwkuBL3XlRboJbQdtrQx7Jd6KHOONUFVsGkRXDkyYCcpeyodGegGrKQEbLSJA6Has1T0FyxjI4Xw6LAePIrkV/1xkUrYlprm8gIHnQRcQYIpwNXSkgLgcS8mFZSKdqpV/bp+F8cHnjMCyZAr7km1SKf4hLp+lSRHwkHvpqcZDjqIxkVkDspuYunJMlRqPdQrUUa42SnLzOWhtqqtzo7hDaejsh8+J9dILCtdQ0FN7a2O07N7tGZyvyCj2I42I/zfSlW0BKqXyeTdwviXgM/4ilViS3+XBisdWzsOBHqJvEe8u131iocyrLLgbRV0fKb50WPTvbu03NzWnukYJTbN0FeziNWbud4aZD2ZrmLIKBXKP7KmEHlljhL2KioNnT/EDiGaubflBynLEusPJsjUwQFbG0J7NnJnVbhy82CmpEuc4Uu0GRaNPIE4lfteQtE2KO432hGi9lcEiVD0JZKJULVYjTfw2ZentMseBril3ghTy9PBuvj3CwdG4u3i1YIQCw2F+ImpjzheFq7syfpBQVO2FFKZ4OFvnIZGY9no0zEs2XP/CQTr2CtvaXVLtK4t/ddlR1bmY1sQBvg0YEUlChpsqEpLum+/xwbRdsyaiVbHXGaros8Kx0ednAlLBm0fBdOzDRmQPOE7IWpXphNj8fC6RmfHZaFfhllFD4lrS7I1Fg3FQWkgeOnbDuaqI/no5Ao9sUyC1qb6oA9GU3AUweiAVRskBTGWCNC3XGn5QXDgj1UXVRpo5GGge2VvsrwjQMGxmClUhug5fIQ9xaEieqCbB/tUhpREUwuIF0EZXc8vuFHIeIOTw5BdJbsEsNouLt4HWjU3Dw8XjeD3nMSQw9IIrJpUe2yFSElx+g7lAGlcHIPLaHD2eAiz/GIl4vUHLch+8yNMRx3CIS0OaEeRXDP8TlWDIRHKFNZhZvUcx/lnE9VdbERLAQpuvn5N81rFzAPFHAtWJqfWwbPtATzJqpfhqOwJagsiVQTAgV2kci4w2IolC19UuhlVxFbByHeAyVmQqYrwTfm0jvrPhBO40t74emxvrXMcpj9NuSQUpknX62XbVLSt4337joySVo2RYT/N4RapvnDNzSU/oSYUgcHUgrekimyIcLYA9uF5mgVD/L8gVnzus7r2ED5bDADnUf8CCeJIEuE2RD2uoyym9UzJNI5xRlLpbN4cLHe3VkPEdEh0WvIZS3zWye1vnTKt9pRUCiR3ROKeUXGFsud2x0zUZqf7QUvCtE9EQY+GMgkROsCe50YGgwZBL6Rp7jb9eQgqJGCAzfmKcBrxpNog9G7p+Zag2xdnLZJXAlik/e/EHuYDMwLq0FyYAQKxtXFKniimxohRPJsBdvJrssMuCx8x9yys5tVkA0oG0FsvUeZ1et7gW2URnhkggzTPQ3e8lgAs5BY6tgZeGZk9JYe84XeMPGp7GL82TH8dgHSeIqE/wGhEjS9oSmFNwAAAYRpQ0NQSUNDIHByb2ZpbGUAAHicfZE9SMNAHMVfU4siLQ5WEHHIUHWxICriWKtQhAqlVmjVweTSL2jSkKS4OAquBQc/FqsOLs66OrgKguAHiLvgpOgiJf4vKbSI8eC4H+/uPe7eAUKjwlSzKwaommWkE3Exm1sVu18RwABCGMOExEx9LpVKwnN83cPH17soz/I+9+cIKXmTAT6ROMZ0wyLeIJ7ZtHTO+8RhVpIU4nPicYMuSPzIddnlN85FhwWeGTYy6XniMLFY7GC5g1nJUImniSOKqlG+kHVZ4bzFWa3UWOue/IXBvLayzHWaw0hgEUtIQYSMGsqowEKUVo0UE2naj3v4hxx/ilwyucpg5FhAFSokxw/+B7+7NQtTk25SMA4EXmz7YwTo3gWaddv+Prbt5gngfwautLa/2gBmP0mvt7XIEdC3DVxctzV5D7jcAQafdMmQHMlPUygUgPcz+qYc0H8L9K65vbX2cfoAZKir5A1wcAiMFil73ePdPZ29/Xum1d8P2uBy0JBkj/gAAA0aaVRYdFhNTDpjb20uYWRvYmUueG1wAAAAAAA8P3hwYWNrZXQgYmVnaW49Iu+7vyIgaWQ9Ilc1TTBNcENlaGlIenJlU3pOVGN6a2M5ZCI/Pgo8eDp4bXBtZXRhIHhtbG5zOng9ImFkb2JlOm5zOm1ldGEvIiB4OnhtcHRrPSJYTVAgQ29yZSA0LjQuMC1FeGl2MiI+CiA8cmRmOlJERiB4bWxuczpyZGY9Imh0dHA6Ly93d3cudzMub3JnLzE5OTkvMDIvMjItcmRmLXN5bnRheC1ucyMiPgogIDxyZGY6RGVzY3JpcHRpb24gcmRmOmFib3V0PSIiCiAgICB4bWxuczp4bXBNTT0iaHR0cDovL25zLmFkb2JlLmNvbS94YXAvMS4wL21tLyIKICAgIHhtbG5zOnN0RXZ0PSJodHRwOi8vbnMuYWRvYmUuY29tL3hhcC8xLjAvc1R5cGUvUmVzb3VyY2VFdmVudCMiCiAgICB4bWxuczpkYz0iaHR0cDovL3B1cmwub3JnL2RjL2VsZW1lbnRzLzEuMS8iCiAgICB4bWxuczpHSU1QPSJodHRwOi8vd3d3LmdpbXAub3JnL3htcC8iCiAgICB4bWxuczp0aWZmPSJodHRwOi8vbnMuYWRvYmUuY29tL3RpZmYvMS4wLyIKICAgIHhtbG5zOnhtcD0iaHR0cDovL25zLmFkb2JlLmNvbS94YXAvMS4wLyIKICAgeG1wTU06RG9jdW1lbnRJRD0iZ2ltcDpkb2NpZDpnaW1wOmNjZDY2ZTczLTU1MTQtNDIwZC1iMWEwLWY1MDE5M2UxOGZmNyIKICAgeG1wTU06SW5zdGFuY2VJRD0ieG1wLmlpZDo0YjE2YmZjZS1lNzA5LTRhNzYtODgxNy00MTE3ZTFkNTRhNmIiCiAgIHhtcE1NOk9yaWdpbmFsRG9jdW1lbnRJRD0ieG1wLmRpZDo1ZjBiYTJjMS1lNDJkLTRlMzAtYjgzMy0wYmJmM2E1NTgwZjMiCiAgIGRjOkZvcm1hdD0iaW1hZ2UvcG5nIgogICBHSU1QOkFQST0iMi4wIgogICBHSU1QOlBsYXRmb3JtPSJMaW51eCIKICAgR0lNUDpUaW1lU3RhbXA9IjE3NDc4MzQ4MDU3NzkyOTMiCiAgIEdJTVA6VmVyc2lvbj0iMi4xMC4zMCIKICAgdGlmZjpPcmllbnRhdGlvbj0iMSIKICAgeG1wOkNyZWF0b3JUb29sPSJHSU1QIDIuMTAiPgogICA8eG1wTU06SGlzdG9yeT4KICAgIDxyZGY6U2VxPgogICAgIDxyZGY6bGkKICAgICAgc3RFdnQ6YWN0aW9uPSJzYXZlZCIKICAgICAgc3RFdnQ6Y2hhbmdlZD0iLyIKICAgICAgc3RFdnQ6aW5zdGFuY2VJRD0ieG1wLmlpZDo0YTc4OTQ0Ni1hMDU1LTRkNGUtODk5My04MTg1ZDliMDcxMWUiCiAgICAgIHN0RXZ0OnNvZnR3YXJlQWdlbnQ9IkdpbXAgMi4xMCAoTGludXgpIgogICAgICBzdEV2dDp3aGVuPSIyMDI1LTA1LTIxVDE0OjQwOjA1KzAxOjAwIi8+CiAgICA8L3JkZjpTZXE+CiAgIDwveG1wTU06SGlzdG9yeT4KICA8L3JkZjpEZXNjcmlwdGlvbj4KIDwvcmRmOlJERj4KPC94OnhtcG1ldGE+CiAgICAgICAgICAgICAgICAgICAgICAgICAgICAgICAgICAgICAgICAgICAgICAgICAgICAgICAgICAgICAgICAgICAgICAgICAgICAgICAgICAgICAgICAgICAgICAgICAgICAKICAgICAgICAgICAgICAgICAgICAgICAgICAgICAgICAgICAgICAgICAgICAgICAgICAgICAgICAgICAgICAgICAgICAgICAgICAgICAgICAgICAgICAgICAgICAgICAgICAgIAogICAgICAgICAgICAgICAgICAgICAgICAgICAgICAgICAgICAgICAgICAgICAgICAgICAgICAgICAgICAgICAgICAgICAgICAgICAgICAgICAgICAgICAgICAgICAgICAgICAgCiAgICAgICAgICAgICAgICAgICAgICAgICAgICAgICAgICAgICAgICAgICAgICAgICAgICAgICAgICAgICAgICAgICAgICAgICAgICAgICAgICAgICAgICAgICAgICAgICAgICAKICAgICAgICAgICAgICAgICAgICAgICAgICAgICAgICAgICAgICAgICAgICAgICAgICAgICAgICAgICAgICAgICAgICAgICAgICAgICAgICAgICAgICAgICAgICAgICAgICAgIAogICAgICAgICAgICAgICAgICAgICAgICAgICAgICAgICAgICAgICAgICAgICAgICAgICAgICAgICAgICAgICAgICAgICAgICAgICAgICAgICAgICAgICAgICAgICAgICAgICAgCiAgICAgICAgICAgICAgICAgICAgICAgICAgICAgICAgICAgICAgICAgICAgICAgICAgICAgICAgICAgICAgICAgICAgICAgICAgICAgICAgICAgICAgICAgICAgICAgICAgICAKICAgICAgICAgICAgICAgICAgICAgICAgICAgICAgICAgICAgICAgICAgICAgICAgICAgICAgICAgICAgICAgICAgICAgICAgICAgICAgICAgICAgICAgICAgICAgICAgICAgIAogICAgICAgICAgICAgICAgICAgICAgICAgICAgICAgICAgICAgICAgICAgICAgICAgICAgICAgICAgICAgICAgICAgICAgICAgICAgICAgICAgICAgICAgICAgICAgICAgICAgCiAgICAgICAgICAgICAgICAgICAgICAgICAgICAgICAgICAgICAgICAgICAgICAgICAgICAgICAgICAgICAgICAgICAgICAgICAgICAgICAgICAgICAgICAgICAgICAgICAgICAKICAgICAgICAgICAgICAgICAgICAgICAgICAgICAgICAgICAgICAgICAgICAgICAgICAgICAgICAgICAgICAgICAgICAgICAgICAgICAgICAgICAgICAgICAgICAgICAgICAgIAogICAgICAgICAgICAgICAgICAgICAgICAgICAgICAgICAgICAgICAgICAgICAgICAgICAgICAgICAgICAgICAgICAgICAgICAgICAgICAgICAgICAgICAgICAgICAgICAgICAgCiAgICAgICAgICAgICAgICAgICAgICAgICAgICAgICAgICAgICAgICAgICAgICAgICAgICAgICAgICAgICAgICAgICAgICAgICAgICAgICAgICAgICAgICAgICAgICAgICAgICAKICAgICAgICAgICAgICAgICAgICAgICAgICAgICAgICAgICAgICAgICAgICAgICAgICAgICAgICAgICAgICAgICAgICAgICAgICAgICAgICAgICAgICAgICAgICAgICAgICAgIAogICAgICAgICAgICAgICAgICAgICAgICAgICAgICAgICAgICAgICAgICAgICAgICAgICAgICAgICAgICAgICAgICAgICAgICAgICAgICAgICAgICAgICAgICAgICAgICAgICAgCiAgICAgICAgICAgICAgICAgICAgICAgICAgICAgICAgICAgICAgICAgICAgICAgICAgICAgICAgICAgICAgICAgICAgICAgICAgICAgICAgICAgICAgICAgICAgICAgICAgICAKICAgICAgICAgICAgICAgICAgICAgICAgICAgICAgICAgICAgICAgICAgICAgICAgICAgICAgICAgICAgICAgICAgICAgICAgICAgICAgICAgICAgICAgICAgICAgICAgICAgIAogICAgICAgICAgICAgICAgICAgICAgICAgICAgICAgICAgICAgICAgICAgICAgICAgICAgICAgICAgICAgICAgICAgICAgICAgICAgICAgICAgICAgICAgICAgICAgICAgICAgCiAgICAgICAgICAgICAgICAgICAgICAgICAgICAgICAgICAgICAgICAgICAgICAgICAgICAgICAgICAgICAgICAgICAgICAgICAgICAgICAgICAgICAgICAgICAgICAgICAgICAKICAgICAgICAgICAgICAgICAgICAgICAgICAgICAgICAgICAgICAgICAgICAgICAgICAgICAgICAgICAgICAgICAgICAgICAgICAgICAgICAgICAgICAgICAgICAgICAgICAgIAogICAgICAgICAgICAgICAgICAgICAgICAgICAKPD94cGFja2V0IGVuZD0idyI/PtN58nkAAAAGYktHRAD/AP8A/6C9p5MAAAAJcEhZcwAACxMAAAsTAQCanBgAAAAHdElNRQfpBRUNKAV3VwFBAAAgAElEQVR42uzdzY8k2bnf998TVd1V1W/TPTPNmStyKPBSc6+gS8IyBMHaGBYBayEDWkneiV5x4ZUN8B8QvLZhwL4bwxC0kABDXo+Ba0AGaECAIcMwbGNsC/SlbPi2ednD6WFPv3dVZZzjRcSJOPGWGfkSWfHy/QyqsyorMzIzKvME+ZwTv8f+8//wH3jl/oP/7D8yAQAAAAAAAACAyTn9Wx//db3+06eSpF8oK/6/+kn2yxffLW/4/CMmBAAAAAAAAAAAGCv7l//0X/jHdx9Vrnz72+eSpDd//qy47vWfPtXrf/yk+PnVT5oTAhKTAgAAAAAAAAAA3ITWgn8fb3/7vDEhIKmYFOg6S0BiUgAAAAAAAAAAgEPbueC/SddZAtLmSQEmBAAAAAAAAAAA2M5gBf8++kYHSeWkAGcJAAAAAAAAAADQdKMF/z42RQdJ9BMAAAAAAAAAAGD0Bf9N9okOkpgUAAAAAAAAAADMw+QL/n3sEh0k0U8AAAAAAAAAADAdiyj491GfFCA6CAAAAAAAAAAwJfbf/8P/xv/ok8/ZEz1s6idAdBAAAAAAAAAA4KZQ8D+gffoJMCEAAAAAAAAAANgHBf8j69tPgLMEAAAAAAAAAADboOA/QkQHAQAAAAAAAAC2RcF/gogOAgAAAAAAAADUUfCfqb7RQVI5KcBZAgAAAAAAAAAwXRT8F2xTdJBEPwEAAAAAAAAAmAr7J//pP/R/+/N/kz2Bhn2igyQmBQAAAAAAAADgmCj4Yy+7RAdJ9BMAAAAAAAAAgEM7ZRdgH3e+86hyKUmP/+rn0r9b3qZrUuAX+gc+/Ex0EAAAAAAAAADsh4I/Btd3UqAtOihMChAdBAAAAAAAAADrUfDHKNz5zqPmhIBUTAqs6yewaVKACQEAAAAAAAAAS0DBH5PQeZaAtHFSgOggAAAAAAAAAEtAwR+zQXQQAAAAAAAAgCWj4I9FIToIAAAAAAAAwFyZJD374peeXQH00zUp8PofPyl+rk8KcJYAAAAAAAAAgKFR8AcG0BUdVJ8UIDoIAAAAAAAAwKFQ8AduyKZJgXv/3mf6zZMnTAoAAAAAAAAA6IWCPzBSu0QHSdmkwKO/+Jl++vOf2T/5+1nfAXoMAAAAAAAAAPNHwR+YsD6TAm2IEwIAAAAAAADmh4I/MGNf/Mf/lS7eSedvy+vOX2aXZ2vmBLrOHJCYFAAAAAAAAADG6pRdAMzbu4vsq5AX7vWD7OLiXXZZmRT4VXb5vV+U130vv/yFspigrkkBJgQAAAAAAACAm0HBH1i4MBmwy6TA2RPpfnS376mcEJCIDgIAAAAAAACOySTpX/7Tf+Ef333E3gBm5n/6b/+5nn755CiPRXQQAAAAAAAAcLNY4Q/gIIgOAgAAAAAAAG4WBX8AR0F0EAAAAAAAADAsCv4ARqNzUuAH5Y9t0UG3f7XbWQISkwIAAAAAAACYDwr+ACZlU3SQ1DIpQHQQAAAAAAAAFoCCP4DZ2bWfANFBAAAAAAAAmDIK/gAWp290kNScFCA6CAAAAAAAAGNFwR8AWuzUT4DoIAAAAAAAANygU0n66vUzPb77iL0BAFvYNTpIak4KEB0EAAAAAACAfbHCHwAG0nmWgLRxUoDoIAAAAAAAAGyLgj8A3CCigwAAAAAAAHAoFPyBGfv4+5/q6ZdP2BETR3QQAAAAAAAA+qDgDwATR3QQAAAAAAAAJAr+ALAIRAcBAAAAAADMHwV/AICkzdFBUv9JAaKDAAAAAAAAju9Ukp68fKofffI5ewMAsNau/QSIDgIAAAAAABgeK/wBAAfTNzpIiiYFfiudvyQ6CAAAAAAAYF8U/AEAR3XIfgJEBwEAAAAAAJQo+AMARmfX6KDHv5LOnmQ/Ex0EAAAAAACWhoI/AGByOs8SkLonBYgOAgAAAAAAMzepgr/3XpKX95KZZJbwFwTWePTJx+wELBbRQQAAAAAAYGkmVfBP01TX19e6urqS915m1vqVJCbJlCTZhEC4jH9nRl0GAJaO6CAAAAAAADAnkyr4O+f07t07vX79WqvVtcySvIifFMX8cJ2ZyRJTYklxNkB8vbVMCITtdH9xVgEALAnRQQAAAAAAYEomV/B///69vvndN3r39l1R7A9f8c/l97Z2YqDrOpnyyYL4zIH269vOKmj7HWcVAMD8EB0EAAAAAADGoigaPPvil37sT/b9+/d69uyZfv3rX+vbb7/NM/1bXlRUWI8nBJKTRCdJIrOken1tsqBrEiC+XX0ioO37tp8rkwcKZxXUzkDgrAIcyLffPNc//0d/wo4AJqAxKfAyuwzRQXVEBwEAAAAAgLrTqT3hrABuRbG/regf8v2lLPc/TdOe267WRwadLCjihtomCawzgmh95BBnFQDAVG3dT4DoIAAAAAAAUDOpgn9WvC6L2N57ee9ab1vOA9iabdXv4yu/22eywBLTSZIoSU6aEwSJ6SQ5aUwU1CcL6pMEaycLWvoV9I0g4qwCABi/vtFB0uZJAaKDAAAAAACYp8kV/MOXlBXonfONQn1V++/K+7Tc4wCTBT71cqmTtOr1uuo/n5ysnyzoPrMgaY0Yaosj6ppAkFS5ffg5vp6zCgBgfHbtJ/D4V2V0UN+zBCQmBQAAAAAAGJsJRvp0F5S7Mv03/S5st+Verb8bfLLAezm3+2RBKPqfnNQmBk6SrScLmhMGzYbHbRMIbRFEnFUAADdv1+igXSYFmBAAAAAAAOC4TtkFmX0mC6S2Qv5NTxZoh+esykRBvYdBYtnvQlG/bfIgFPBPTpLGxEDbZEH9urYIonWNjTmrAAAOq/MsAWnrfgJEBwEAAAAAcFyTjPQJ8TLhuj4F+aF1PYchJguy39Ufp/hN78dpi0Lq27ega7KgfnbBtpMF2fd9Gx6rZQKhPXqo/XrOKgCAXRAdBAAAAADAOBUF/6/fPNfju49G/WSLOJ+Z/d/+fSYLwn6J7tVxfffZBdWH6Xd2wZCTBVn00K49DExJctKjuXG/CKKpn1Xw8KNHjHIAbgTRQQAAAAAAHN/0In1MMvH/62NDnF1Q/13X2QV9JgvWbyu7vu9kQdtzziYB8gmCvSYLks6JgXhCodKHYE3D43VnFwDA0hEdBAAAAADA4U2vaa/KAupY4nym7LC9CzafXZD9Lr6++tft8zj1CQOferm0X5Pj+rZCv4F1kwVmtlXD47ZYojBZcOvWbd25c0e3bt3izQcAGxAdBAAAAADAdiaZ4Y/xGCqOqP67IScMsibHq63eh+GyrWdB/H19suDevXs6PT2l4A8AB7IpOkiqTQoQHQQAAAAAmLEJFvxF0X9G9j3DILwv8nt0XN93wkDq08Mg3lY2WdD//fvhhx/qwYMHunv3Ln98ADiSXfsJEB0EAAAAAJia0yk+aQr+49ufNxmtdIymx/VthV9tO2FABBUAjE/f6CCpOilAdBAAAAAAYGwmtsJfCgVV8vt32X921G1P5e+z74RB9fX7zuvNTuS9530LABO0dT8BooMAAAAAADdgYiv8rchNR4+9dcNnQqxr3Ds3myYNsjgqT8EfAGZs1+ig+qQA0UEAAAAAgF0VBf+vXj/T47uPRv+EQ44/uvfPFJ7bUoveWeY/BX8AWKLOswSktZMCRAcBAAAAAPqaXNPe/Dv+cq37ZZrPeUnF/2yFP+9ZAEA7ooMAAAAAAPuYXNPebIW/RT8v9483l+bFS2poexORPp/++DM9/fIJox0AzATRQQAAAACALpMv+C/RXF//Egr/3nt5In0AAAMiOggAAAAAlut0ik96qUX/pbzmORf+nXdE+AMAbhzRQQAAAAAwT9Mr+FtZ8DezReShL/WMhjkW/r3zeeNeAADGbVN0kNRvUoDoIAAAAAA4nulF+uQNe5dQBF96dFF9P8yh8O/p2AsAmJFd+gkQHQQAAAAAw5lshv/ci+EU+7v3yZSL5s45iv4AgMXoGx0k5ZMCv82+JzoIAAAAAHZTFPyfvHyqH33y+eifcCj2J0kyyz8Ihf5++2iKRXPvffEFAAAyh+onQHQQAAAAAEy2ae88/xgU+7ffV1MpnofnmV1mRX/+3gAA9LNrdJCUTQoQHQQAAABgKU6n+bSrK/wPueI7rMA+ZmwQhd/99t2UVsxn7y9J8pL4uwMAcAidZwlI7ZMCRAcBAAAAmCky/COr1UqXl5e6urrKH0sySyqPZWayxGQqn0P8fBrXmYrbrrs99ntPTGmlP5E+AAAcH9FBAAAAAJaAgn8kTVO9fftWL168qKzyb35JUvN6mZRY0vh98byjiYLO2/ScJOhzu/DzEkwp4ies8j/Wn+bj73+qp18+YbQDAGADooMAAAAATN3pVJ94Wcg2ZfEo+1utVnrz5o1+85vfyLlUITooLtYniRWr/pMkqRT5w/XxV4ge6p48qBbss8eT4tiibSYcuiYUdplMSCwpX/9EJg6msNqfVf4AAEwT0UEAAAAAxm6SK/xDEXoIzjldX1/r8vLywM/ZlCQnxeRBfZIgLqy3/VyfQKhONtj+Ewq1sw/MEp2enuri4kIXFxdrX1+aplqtVkrTtNhe/bL4e7VMODRuo/3OTBh70Z+CPwAA89U3OkgqJwWIDgIAAABwKJMs+MeXQ2z/0Nv23itNvdLUDbZfwgRBfEZC0jmZYNWzEaLbxl8XF+f6+OPHOjs708nJSedjpy7Vu3fv9Pbt2y3jioq9vva29b9L52RBtO36e4VeCcB0fPY3/1Dn5+c6vzjX+cWFzs7Pi7Eg9vCjR/kY6/TtN8/lnJO85OX1/Ktv5OUl5+Tzcfj5//csu85L3/zyKTsawI1pTArUzhKQmv0EiA4CAAAA0EdR8P/pz39mz7745SSWHQ9VwB2yP8DQnMsmE8Iq+0O4d++e7ty5qwcPHqx/7NTp7du3evbNs2LioL4/44mAelRR9bbZbbaJK6psq+V2XY/VZ4Igvq0knSQnxfPfhfdezjlW+ANrnD+4qzt37ujOxYXu3L2rOxd3Nt7ng48eyXknuazg/+DDh8XZNOHrsz/4fXl5eeflfuLkXfX3r373rZzz2W281+uvX8jJSz67j5fX66ffZiFy3uv1k2/5YwEYzFb9BKLoIGm7SQEmBAAAAIB5meAK/zKC5vDbNlaDR+JC2CZpmur9u/d77/9QhE8SU1vhvy2iKNy3fp/637TPZMG6psuSdHZ2pouLC52e7vPRodgPHPzA4L1MJm+++yMWtXwxWbbaP7ru3sMHctG4d/fBfTnvKhN1H//F3yuv+2uu+N47J+e83r18Le8k75zevXhTmSzwzuvq23fZddkgq9XvLvn7AdjJofoJEB0EAAAAzMsEm/bmBVgNFemjvVZwz4n3bov9Zgd4PF/EcTg34DsoasC8aVKhPrlw79493bp1a6+Cv/dihT+w3ZC/4SZ58b7j+kZr97bCf34AMG3x+TTJfHx/6ez+newMAu90eu8s+97lEwPO6/yTB3IulQuTCM5nP+f3cc7Jvb3KzjRwTnqblpOv+RkJyftyrJT3Or3imAWgXd9+AkQHAQAAAPNxOsUnPWSkj8T/VwlciLvosSJ9SmdFhNW2u0wqmJkefPBg10fO/qXYD/T9wPWe3I2L+tUifv6LRtW/2uC7a9IgK+pv+r21PnbnfdqeTPzb89Os94Az+dtJNhGQ5pMBzsndC5MFTml+nY8mDCTpLC37rpytmof626uTtT8DWA6igwAAAIB5mWTT3qEz/FnhnynifPzm/baceRK/dyJP35gkAFsN4NXPZ/5jucq//TKMYfXPpFkWD1Ss4M/jxrzl9218httmFGq/svbndsjhKbg8SVu/L5yt31SYMLj//ozJAGDhiA4CAAAApmWSBf/4Mnx/qALqsorX62UrRTcXp+O/ydwL2Yd4eRT8gQGODfl/ravr66v81yywt55jmXU9htRR+99Q3F+/6H/zuHLg3iBhkuA+by0APRAdBAAAAIwHkT4tEmOFv6S8UWW/4rTlWfjzL/jvX6zP7n+8/fTok495M2MRGsX6ooiefdNY3V8rsm89htUy/M1azhromGwoGgxXn2j+3DYNIpULAJgEooMAAACA46gU/L9+81yP7z4a9RM+RqTPlPLoh9S7aa9pMfvtUAV/FvgDgxwgstK5rYne6mzYq9aMf3nJb2rmu2F1//ADU7hgYAEwXUQHAQAAAIdxOtUnTsF/eEXT3o3RFiazPEIbGxHpA2wxLm912+7YnEYdPi7811f2r4v8CZMAax67/jxan9ehJwkYUgAsQN/oIKmcFCA6CAAAAEsz2aa9oQp00BiZLJSZgn+ub2E6218ms0RSyj45wjYArBnGo+PCpuz8ZrHflJ0gsLFbefV26wr49eigPZr1soofANZrTArUzhKQon4CRAcBAABghqa5wt+GydkPTR8p+Je2KfovJdJnDNsA0DkYdTbUDcX9roL71oV46/7R8p82ru7f9fF9z+sAAA2H6CdAdBAAAADGapor/AcsypuZLOF/m2+9zxYyScIKf2AqA1P4wKlXgb/1bLFw1pdM8r7zNpXGvfXHipr0rvv9boNJ5w8AgD3s0k/g/m+l85dEBwEAAODmTXKF/7BNe8vCDCTnXO/i9HJW+FPwB4b0/uUb3blzZ7dxPK+gm1mlEF8U1uuX68azlmgfM2s2BT5AHv8+MT8AgOPr20+A6CAAAAAc20Qz/Mui/yELp2UWPf+7uuQp+Ff3hvZ9y1HsBwY/UEjKo3uK4nx0nbpjfbIV+5tr9vXjT7a9+HvfHiG0bkLAOgeexjjU9jsmDABgXIgOAgAAwE2YYMFf0oAr8JcUT9OH79G8st5Ied47ZPeCfbgbK/yBIxwrQrE//9yuG7+Kz2MtnmfzY7Rd49c/pyL6p+dr6NjesYr7V6epbq9OeEMBwACIDgIAAMAQiPQ54ranyDnXK54i9FaYO+/93oU25x0Ff6D3oLzLXTpifeJtHugjWJ8wWLvdAz6uxIp+AFgCooMAAACwrUrB/6vXz/T47qORP2UbNMM/vkRmU3E6rO5fTIb/vjU2f9xC3cOPHvEmxqQcZPLQ8ka7sihap/bxja7oiogrsvwtn0bwG5r/hu9Ds15rTjjE8T/Fz7bb2ELRHwBAdBAAAABik8zwjy+z7w+3bVb4V/XO719I74NDrMx3zvHGAvqPzHuN6b0K6S0r79f1iFnbP+YGhkGK/gCAdYgOAgAAWJbTqT5xIn2Oo2/e/FL228Hy96nPAcMeI4ol9rUm723F/XpWfn52wKbtd50t0Lrd4ulUH2tdTj9DCgDgWPpGB0nSOdFBAAAAo0aGf2PjRPrE+hf7l7Lf9i/4O+dY5Q8c5WCRNeHNvrUslieP1OoqtG9VgO+aGAjF/76Z/QfO9gcAYAiNSYHaWQLS5n4CRAcBAAAMb7IF/8G2LVb4xw62on0mnPMH2acAjnK0yGry5juL6pX8/XVRPWuORxvvHz+2tT/2doNIyxcAACOwbT+BEB0kSd97kl0SHQQAALCfaUb6hIiGxGTedMj6KZE+Vf0L/guJ9MlX+Hvvd369TKIAxzpUlJX2SqzPlscEb9kZAdscbNqK+a0F/h4TET0HJwAARm+rfgL5WQK79BNgQgAAACzZNFf458XlxBI5HTYahVp/VVYcI8O/3CH7rdAPxX4K/sARjxl5od/yKYC+kTttEwRmlo0Dlcz/cjt9RsG3797q+Tdf66OPPtT5+ZmurlZapdfyzudfTt6l8nn8V/bl5VInl6ZKnVOapnIuVZpm38tLqUvlwhjjXPl99BrOzs4qz+X27bPW5/j7n/9Q//ef/ivePACAo+vbT4DoIAAAgHaVgv+Tl0/1o08+H/2TDoXlYerLpiRJeGfksmJRv7/JIur9+QTIviv8WY4LHO2AIVPI8PfZz97W5vhnR4I1n9I+H/22DcQTAxY9P0uKaKCsH0p+g3hc9V5eTpKTvJP3rpgYyAr/qdJVqlUavl8pTbOf1/UM+av/xl/T3/s7f7f9lz/5tzvvt1qtdHl5qd/99pmurq+0urrW9dVK19eXurq61tXVla6vrnV9fa3rF++0us6eX9devf2CtyoAoD+igwAAALqdTvWJJ0kis8MX5onzqdpuNbotZJ/svi/Lfcp7CziGoqhv5Rgf5+4XQ5evHgc2jntb3ieeXLhzcUff5vdJzGRJiB/qumc8vFr57w0PuWam+x9+oKvLK11dXenq6lKXl6fS5aX8ZSJ/mSi9lJQ4pZeXurxcdW7r5FI6ec/7FQBwGEQHAQCAJZts016zanF+l2zmddtHxnvfO0d6Kftt30ge5xyRPsAab799rUeffny4Y0Y4bvhqsdznTbgrK/03xPzUx7y2z3LYnlU79Lav+DeTKcl60rh8e5b/qnLDfIyt/CJ6PfVxqvHNQMfiPGLPLH71VnntxJgBAMaI6CAAADBXp9N96sNE79C0t8p736tgxH7bbp/6I0f6fPrjz/T0yyfsfCyTZdX2crW/7dzEt3kkir+37JO9xaRBEhrQK7ss29KEICIrtl15TItfW/2Z+OjfoXZpOfFu1rY3wjOh0A8AmC6igwAAwBRNeIW/DRZncKhC0Bz0XZm5pGL/3iv8vSPCHzjmMSP/L8vwj8b5NRn+h378eoRQtpA/y+9Pwir5sLTfF1MHtfHVVJ8IqD1Qc7wa6PVlz8kaD87ELwBgSYgOAgAAYzTpgn9SZPhvsZyy77YTU5pSld2muL2oSJ993m9eTCYBxz5u5P9Y1LS3qJ/79YcSM8s+t2a7NfFYc4gyk5RY8dwSS+SU5j+XC/graT4WvaYNY81wx+H4zC6rnOVF0R8AgFLf6CCpnBQgOggAAOzjdMpPfoiaghVRD4mibIXF6p03b8sq+B9lnwKLd8DPSSXD3yoTAOHz2GfFf9vZX7ucEWZWFs2TLMU/m1AIi/w3lfNtzcHQH3jf9ThuAgCA3TUmBWpnCUjVfgJEBwEAgHUmW/BvxgkcasPx9hF479fuE9PC9tcetTQK/sCWA/IBjxvlyv5opf+6h/e7PGffMy4oXxWfZF/m8xX+iZOcW7MbrOcu8hqu8F/t22Jma3u5MOYBALCf3v0EatFBUv9JASYEAACYh0rB/6c//5k9++KXo/9/5WXsTnL47cpoQBvpW5xe2j7br3jlKX4BW3xeDjK+h+q9Vccs68rDl3bL+K9NEsTbaHsck2WNe62M9TG1T2hX57mrZyvYYHuue8xfN/bH1+3b9wQAAGx2iH4CRAcBADAPk83wHypCpigCJfzvmEy2QnTTCv/i77KEPbJv017Xf58CDEGHHOCrGf5FHr5tH8tTv33n5EDHWQLFXZMsQq6YeAgxP4lVFvnHuf21mv/x9t82x2jlDYOp8wMAMBp9+wkQHQQAwLRNtOCvYiX+4bZZ3VbZEHjZnPPyPZrMZhMly9gnRd73DrndYbKAxa7AjRw9yuOHTN6qUTSVz/PhesF3PZXG2FmccZCYzNnG6n6fKLWhhxomLQEAmBeigwAAmL5pZ/gP1LQ3SRJRw8h47+V83+bFNO3te/9sG34x+wwYxXFDcYa/lFX8fUesz9AV//JRzLJjjiWS+bLYn1iyxfgbjTHVf258nCTOBwCA+SA6CACA8ZtowT9bETnUKnyzrACDLMO/T81oSRn+u0b61Atg3ouJJWDDuHL4o4fKaJ8+jXvXH4l2LqlXM/BD1FAiUxb1lSiRM9c9J9hj14xhdX8Y9yj6AwCwHEQHAQBws6ab4X/ASJ94O4fe9hz0LXAvqeAfv+Zdi/8UwIAbOYDIfLXhbZzjv+tnuvIQLXn+3Rn/oWFvVPg3kxLJnCmxRKm2XeXvKxdjGzfbpGfSyXvengAALAXRQQAADGeyBf96cfkQRZp42xT8M865XsXppe2vw8X6HMfH3/9UT798whsak/D265fSXx7o+JFP6JbRPlYZ9481lt0+O8+fj2RJEp15UDsObfN8fOu3Nzc++qhvCd17AQDAFogOAgBgd5PO8E+S5CDbabvOEo77mTyOQazwL/ZIrVB/qMkmAEc6foR/8jYaRbNclSv//Q7Z+TsMJpKkRHmMnHdFf5pEiVJLlZjpJEnk0rRtaG75cbvV/f/r//g/6+/9nb+70zjIuAcAAG5S3+ggKZsUIDoIALAUjYL/12+e6/HdR5N48kMWmBMy/CVJzvWP8yHDf5v96nhzATd28GjJ8A+NfPPfy6woyA94EMseJjShT7Lnk8jkEilxIcc/fnI9xqjwrx/yqduG51Br2svcAAAAuAGNSYHaWQJS3k+A6CAAwIxMOtInbnp4qJWG5bZ5c0hRcbvP7rVl7Zf6+2a79yCrY4F+n5RBjiJZdE5lXX/z+LLzxFzfsdD78rmECYasI73MWRk5pOyMtjRf5e/LUaS2j3xtgf+wY8ymyc96o3IAAIAx2refANFBAICxmXaGv+2/nc5ti+OxtF2GvymLQvJu3oWdw+T3UwADbuwYotqq/o4c/6Hjunxt/AzF/fh5JGayRMVzrTwdnxf96yk+R+rZ23YMrR8vyO8HAABTt20/gfv5xMD5S6KDAAA3Y7IZ/spXZw6xXZkO0h9gDoqGi5uKXlEO9tyLO4coYFHsB278EJJdxoX+Wo7/zkcYv8WNzPI5B5NX9DyiHH9TosRMiSVKleb3jav65c9tq/2HkiRJMSnc9vLi5r0AAABz1refANFBAIBjmG7TXu2XGb/uvvtue068d1sVp5ex39oLadusBqbhJdBznB9s41b5zBaNfOs5/gMOI/FDqUzwyScgEilxsjSRmWtGzfk1Gy6+G3aMOTlJin1Y+RJRPgAAAHVEBwEAjmXyGf6HjlyI4xSQNe2VNhdtLM6hnrn94njK/UkhDLjB44iqq/r9kY4xtYNZ+Xjlsyp69GYxacojfbJJAEsSqZHlX/vhSGOLWaIkSZpnglXGSMY6AACAPogOAgAcymQL/vHlobdNhH+pb6RP6HuwjBhzrvkAACAASURBVIK/P0iOPzkXwA0fS8I/G3L8s7id5ud1mxX0a28bTzK3PA9TnuWfZ/orfj6+UvaPH/AoslX+8QM2JzUp+AMAABwG0UEAgD6mG+mzx2rytXE+eeE6MTL8g77FmqWcGbFuf/RdDRwa9x7Lo08+5o0MND6wai2u75vjv22UjuVF/HBsU5TjX0TM5Y3qzaTEVFvWX/4YAnXqif7DHYsTJclJMYkZnwF17HEOAAAARAcBAFoK/l+9fqbHdx+N+klbsSxzqO2bSPQp9SlgE4O0/T5l1SvQe8AfauOSeVXK/F05/ibJRZ/ZPT++vgjx99WHjJr4mkX5/SpX9xdnBITiel7hr6z6P9JJREmS5E3urSj21+N8GOsAAADGg+ggAJi/ia7wz6MNknIV/iFrQkXDREjarjgdF/7nWuRxzh3gtVEEA0ZwJMnz+3210F8by+K4nbBk/WANcb0qkT5lHxlVzkBIkjLSx5Qt8/dRjI5vNBP3R0n1SZKkOB63xfgwzgEAAExP3+ggvZbO3xIdBABjM+FIn91W4W9ahT5kf4Dp8jut8p9z4X/fWB/nKIIBoziWhH989k0lw78l8sc51zVKdg2f7bfx9SehYvV+Pcc/7jMgM1liSpRNTHul1dic4y3ulyQliRVF/2qUTxnnQ9EfAABgfhqTArWzBKT1/QSIDgKA4Uy6ae8QsT5E0zR5v3mtaKUw1fH3mkvR5xANd4m5ALq9/fXLYx5QOnP8K3n+Bz4ulMVwV+b0e1/U/EOOfzHpEP9nId+/2Fo5rhQ/+yPtvqSI9amu8meMAwAAWLpt+gnE0UGPJZ09IToIAHY18RX+Nti247igpXPO9a4drWt2PJfC/yGePwV/YGTHk3qOf/HLONLf2s/g8R3fq2Oy1Etn52eqpPBEcUHheRTZ/cpW0FsiWRImApIi778yB+mP1a43GvfzYn91lX8eNNRzrFvdlm7zVgQAAFiU3v0Eouggabt+AkwIAFiiWRT8syLDITeuIXsCT9Kmgk0cf9Hnb9dnm6PdF/J7v98o9gNbjMeDbr6W4R+dQFbJ7g/XdYwJ8U+N69pq/r52yImjfFRd3a8kmpSIV/fHPVPyR/Th8Y44xJR9Bmqr/D2TmwAAANhP334CRAcBQGmyBX8VdRjbqqFsn9vEMQ7o36R22322zd9uTLzzvSZA1t2GAhjQd6i3IzxG7RGt+6so/u/dt9uX28kL+D7K8K9E+hTPKcm/T7KV/iH6x+Lns32z3q+e/VaffPydnV9KHOkTxj5PpA8AAACOhOggAKhqFPyfvHyqH33y+SSefCguHBqRPrvvt23/HlMs+odi1m73zS6dd53NPwEcffBqzfEvxjVVzygr+pX0TDvrGi/isc/MZN6XkUK1hsGqzgVEkwB5zFC2nD5f4X/cMTUu9ocmvvHqfi8K/wAAALg5RAcBWJrpRvrkxZgkMaXpgbfNMF3RJ5KhiJnYYedNcqW/3//+FMGA8RxPGjn+qp5dEGfqhyK7k6t9rH33+OCbVzTGgDCpEL7NC/tFtE+8+t/KcVdF0V9lX4AjjqnVSJ+TbN/kE5oh2gcAAAAYM6KDAMzJDDL8h2vci4zzbvCC/JSK/n0jjtY59mt9+NEj3sjAxoFIlQz/stCuykywtR0jKpH9zRx/L69GrL+vDILZCv/axEP8c5J/mcrInyzmJ38+3rc9ncHVI32Ksw6I9gEAAMCMEB0EYComX/CPo3fWFY23K+AbBf9YozI1zH6bTtHfF2c9rHu9614Pq16BDZ+yI48FVv3wNhrDF5fRDRNLlPo0jAp9Ro7yc+9VKdBXYvhDZE+0uj807y0a+FpeXK89P++cJH/0pr1xsb9s3usY5wAAALAYRAcBGIvTKT/5oWryu2TRz1m2op39FhyiDtknJgnAcQ8ojQa90vrGvcrr//WV+7XrOkYBOfm8QB9tq9G4V+XZBvEkQPSc40uZ3UhkmJnJEqtk+UscRwEAAIBY3+igeFKA6CAA2zqd9tMfprkuBf+mPsXpIk96z30/9kL4IYr1h4gFAnDIo0k1x7+4Lvo+Pj7UV/s3xonWWYAo7sfn18eDZlvj3hDtU2vSa4mVRf/wvG5wDE0SU2JJtNo/W+VPc3IAAABgO41JgdpZAlLZT4DoIABtpp/hXwxRlUCEA2x/os1kBxBymHvuuYP8bce830PBf1OkT59tABjbwUXRCnpVMv3jZr6V1f4myfWPIQojanF7H417jca90Qr+fHwMOf6h6B83E673GzjeMbmZ4x++BwAAAHBYvfoJtEQH9Z0UYEIAmLbpZ/jbMCv8s7MHTGlKUXabHOZDnXEx5qJ/eF77PD8K/sCmD8kNHFeqg1BRQG8U0q1s3Nt6RphXc4zwzReYNUSvZvfLx8/DilX+xbGpaCZcTjwosWKSOrvuBnog1GKPisJ/wv9PAAAAAI5t334CRAcB09Yo+P/05z+zZ1/8chKVyL7RO9uuMIwjCSTiCLzvH+mzoL3S+71U33dlsZ+CP9DlzYtXunf/3rEPKo3InkrUT8sxp3K9872HjTAEeMVnUJlMXt4sivIJK/1VFv/jMwtqq/vDhLUdeYQpVvfnOf7huQwxKQ8AAABgf337CRAdBEzPpFf4x5eH3biG2/YEZatQ+2b420H/xuNd5b/v/b1Y4A+M7LgSFfeLnxUV1ONxrj7W5cX3oglvyyp/L1/p6uu8U1jib63HobLS3/pfMTmhqPAfTQoccZCJz7qLLzmOAgAAANNFdBAwTZOP9BmqmEChIrJFfP+h99lYi/67RvKE+9C0FxjzAaZslhtX4otV942zAFSZFFg/nGYF/vPzO0qvL8txwCTz1eG2mFewat+a8vpmw97iftm5AkfbZUlSxvjUL+mHAwAAAMwT0UHAOJ1O+ckPVZQvVk6SPSypLE7v06R2brz8/hn+RPoA6z5kN3Ncib+pZOZbs/hfa9wbzgwoPtte1Z8V/+zlw9lT3isE+GeTDNUzCKz+BC1a9R++j59DuPsR96Hl0T1txf6j5wsBAAAAGA2ig4Djm/AK/3A5QME/3ybZw5m+q9n7rnCdx07Z7+5ui0bIh/Lpjz/T0y+f8IYGNhxcKg1oa3E+nY171YyZiwv9zaJ/Obb6NaNqFN7fOPOgehmv9m+JHDqCuMgfJs2TJFFiiVKlvLcAAAAAtCI6CDisCa/wHy7Sp5KLjN4NZof8e4wtDmKbFfqtz79nI2QARz+yVMaxesPeznEuqss3x892oT9KWN9fbMc3t9lI8rcyr78xIWEtT+QY+y4v8heXoadAj+NCepv3HgAAAIB2RAcB25l9pM+uBegksSKiYOlCg9k+kT6LWeDv/V4r9MnwBzZ8xvaMzdr7+FL8V/5cXF9r3Fu/zmRycvGLqX6fLe+Xdz6K9Ikf2XfE+JTfh1X8RZZ/8diqnHHQx69/82t98vF3DnNMlmXHz3CZN+8FAAAAgCH1jQ7Sa+n+/5L9THQQ5mrSTXvjy/D9IQpElUxklKtQN+zbsN+G+nvPqUBOwR8Y8fEl/FP/in7f1bi33EApNOqtXJOPqc7VC/4tzyWOC6os4o+K/PntrNZP4NjH5VDkz+J9ksHO/AIAAACAbTUmBWpnCUjSBdFBmIHWgv/Xb57r8d1Ho37ia6MVDrDt+HLxvLaKr1nELvH7rj72FPyB8R5goia99cic6GaVaDmrHpvCDePGvbWPvPNZ417nfWt5vph4UPtUqsXPL0T8WPWEgOMfl6s5/iHXHwAAAACmYJ9+AkQHYSxmH+mzK4oUJef6NZhd0v7at+DvXJbr0ScmCViiG58QM7Vm91ca99ZuXzbVbc/QrzbxVRHpU8nw73gu9VX+ZZxQ/rhxzI/Ksw767MV7/+UfS3/8jw52TG6c/ZAwxgEAAACYh236CYToIEl6/JLoIBzPpCN94oL/EJEvFGIzobjdZ/8Ouc/GFevjD7BPeW8BGz4oN3N8qf0Xrmsce6w93qdSgK8NF3HR3+Wr++WcfJL0eWKV51Jk+MuqMf8Wdfs94i6Mj8ehcW9iiRL64QAAAABYkF79BIgOwoBOp/4Chor0CVnEkPxWGf5L2Sf73DeeQNm4thdY6MBzw8eW8I9Fq+h7NO4t71YW/+sNiH3+j3de3mXtfU+2HFwq7YRrDYPDhMOxK/5xhE9o3GvG5DkAAAAA1BEdhCFNfoX/ELXScrUmqxKlsv7UJ8efDP9tt3EzWdvAZD5rN1X5j48v1gzSb6zsj8fAeKW72lf6Z2OAy+K9nJNFK/zbXnFU3pfisw7ip6mo6Xz+b9/9d+u3f67r7/yFA+y38jnEjXsBAAAAAP0RHYR9THuFv2mYqIAokgF57ESPHP8heyrEjzGGWJ9dC/6VVb6exr3A2s9L8c9NHWKi6J56bE/LcaMstas8I6Csz5cr/fMX5rzPxtctDk3ZOBh/RZn+xXONjmFHjvQJ+yys9I/jfbxjvAMAAACAQyE6CF2mvcI/ijI4eH4/MSsF70L0TK8dh473a/09SsEf6Pb2+Svps9+7uc9sOL7IqnE9HVE+Vim4V2/fGFPzwr93roj1CaOsXzu2WuuAa5V1/+sbBw9+XLbmvgr70YvxDgAAAACOieigZZr0Cv9Nq8l3XW0er1BEGT3TJ8PfbqBR5M3tk2m9yI+//6mefvmENzSwwzGhctnVuLdSgC8L7sXvakOGy8cR1zKWbJxmjRv4Rkv/rbL8/9jH5Jaif1IeT51zvJkAAAAAYESIDpqn1oL/V6+f6fHdR6N+4llBQYMU5cO2Wa2eca5f095iZeuIVnJaUj0TpM9XeA9kTZvbf3/37l2dnJzs9dxY3Q+s/3yUja1vaPwI//Rs3KtKxI6iJr5R8T1/SV7Z2VPOuWKFf9kwxa9/To0fwir6aLV/NAFxU8foJEkqZ0cAAAAAAKanb3SQVE4KEB10syYc6SMNVZEvmx7yfpO2W80eVnj2v/2awnveo6E1HiJMyqi7YL/u+lC4a9tO/f6V++Xf37p1S6enp3vuV0fRH9j4QbnZA01RrG5p3Nu4eRz9U/+5WHHv5eV19+Kufud/W0yodhb5fX0/WCXex6yW9hNNVh//GNYyhidZ4Z8z5gAAAABgvhqTArWzBKTufgJEBx3e5CN94pWDh1xEWK7wXq7QdLFvsSaxRLdu3daDBw/knMuL//0L9pW/ac+C/La3q79v2rK2m9u11vfcPqtW+8YkAct187FZbRE+rVE+LdepYzyJXl0U6VNO/vnyBltOdlhlsjo+8eDYx+TwlVgiTpUDAAAAAEj9+wnUo4MkooO2NeGCf7MYe9Ctm8lsvCsS42K8mckSK1bDF9cV35eF9yRJopXz5fX1bcSPYWa6d++ekpNk43M6Pz/Xo0eP5L3vVZAv93X/IrtF2dRDFuWHRrEfWPcBGcmRJs7m39C4Nzo6hW9aVvlHRX/vsmK/U3WVvy93QPjWN46A0dloxSr/WpxPz5Yq/9f5ff3RYQ/PxdleYcKYFf4AAAAAgHV69ROoRQdJ/fsJLGlCYMKRPsMVdPfddjg7wGoF+JAJXxQ/osiaaoG+uZq06/Zd0TWhuBIK/uFxw/Orr7RvW4kfTwycnZ3rJDnZ+LrPzs5069at/Ipwsb4oP9Tfceym2PgXOPrn5KaPNfk/RTa+qnn9lQnIqFluY+LRamOdzzL8fVqu8M8Sf+Kl/X7z3qjF2xX9ZyxqPnDknfjm21d6++atLt++0+rtpdJv3urk/Upn19LJZfW2J+95jwMAAAAA+unbT2Dp0UGnvFWazEynp6e6uLjQw4cPy4K71Fq8D9e3FeTj+2xbkI8L7vWV8eHx1q2eD7eR2rPw649lLXE49dv32W/YJF+5S8Ef2PApGcMBoXlpLT1erD62qpr5by1nAxRxPs4Vr7ko93fV/DuK/ma1KKHiOfSr+H/z9Ve6Oj1r/x8KPjs2Pf/qWXHdsz97WrnN0y+frN1+Iuk2b2sAAAAAwMCIDppBhn9cJD9k7fTs7EwPHz7U7du3i+J+o1CeWKPg3la0j2/TtZLetL5J7DFy5XFc3m8d0g0s7jPiR7DGv1ihX2vcWxmP62csWTUOqDE+Wyj45zn+zmXHjyLVxzcC/dePGLVCv0ln52c6uXUi57J7nZ+fV45xwV/581/pf/tn/53+zzsPWrf84PJM995TrgcAAAAATN8SooNaC/5PXj7Vjz75fPR/oCGL27du39L9+/d1cXFBUR6DCI17AbR+QPLLGz7OqGVcN7U27g23t2iVfaPwb6qs8PcuW+XvQqRPNMURSvyXl1dKXapVmipdOb19907paqU0TXV5eR01/TWd3j7X6e1z3dniNX7//Sv9mnccAAAAAACSph8dNO38FStX2vv0cFUhM9PtW7d1+xYrGjGcY0f6PPrkY3Y6JvcZGcehptq4txLXY9VjRzXCp1noL3oBmOn3vvs9JUmi9+9TXV29lFe20t85r7dv38mlTs45pS6VS/NL54rvm/uHyWQAAAAAAI5hzNFB0470CSsuKXJgksjwB7q8/fpV9ikZwWckbtzbPPbUrjOrxOpUC/1WiQM6P79QmmbF/NVqpdS5vODvOqJ9lDX7rV+3p3/170uv/+u/oec6b/39+9WJLt91/8+Fjy7+d96wAAAAAABEbjI6aPIZ/pKUJKY05Y2EaQm52gCaDl3U3u9gU17Gxf9KM3aL1tfXG5+rtvI/in8rXmv2TfHlVe1fsM/+eP63X+rZH/1Ov/79stHuP/ve/1B8/7d+8cfSf/HvSM+7t/HgfdL5ux88+IH+6KMveNMCAAAAALCFvtFBUjkp0Cc66HTqOyZJEpmVhYiseS+FVAwrvMf26cfA+xTo80EZw5OIerLUPvNxZn8YE+r9XIqxohL3o1rRP37JvvL62wr/uzQz/te++CvF93/zT/5G9Jv/R/rL/0nn/c7SE330+g7vRQAAAAAAjuzdRRYP9L7+f8s/K7+9/wvpvsqzAWaxwp8muOgr5OaHYrtzLltH66rXrfud915mpouLC52fn+/1XMJjAWj5jGg8Gf6VRr1mjbj8YuV+2/GpXuiXKhE/JmtObEQr/cPPu+6PR3/yQI/+5MFR99mrqzfhhUpe+vYqW5LwzfsXlYn5Hz74ru7fvsubHQAAAACwSBfvyu/P32Yr+IOzJ7X/r/0TSfey1fyv1JL3/4vs58mv8C9WU2K26kV6772czzKu49+t/3LyXnLeFQX8rutDUT/+vn55enqqx48f713wB7Dhs69xNe6Ni/9xlE98LCpW9tcK/ZXs/0rEz6YdUf/+ZvbJq6s3Oj27VSngv0uus+bC3sk7p9cnl3r75q3S1MmlWZPhdE3m3g8ffJc3OgAAAABgduqFfGl9MV/KCvpX3ynjeboK+ptMfoW/mcmSKGBZFFHHIC7OV746VtPHRfx4hb3k5Vz1fpsK9ZsK9uE+2XVOLv8+/Jw6lxWwXPUrjYpXd+/d1f379w+yjwBM4HhTXJaN4suif21lf1TMDw18KxPTtbMEst83c/trI8bgrzF1Tient3S9WoVBSu+vLvXSeX1z+43cLS/nsibD7jQfG/NxMXyfXqVHftYAAAAAABzXNqvyY3ED3lDMl7Yv6G8yj4K/WOF/CG1F+lCEl0knyYlOTk7WbuPq+kqX7y91fX1dKbqX280K7JXH6FGoL4r1ceG+8n1aKdy3FerD1yG41O1csA93i89aAND+YRnVZ6SM3m897lQy+8sDVfG7otCv6KyAyo33k66yJQOnJ1lkznW+Ct+lr7Lfp14PH7yVmfT115fZbW8/0p0Hf0mSdHl1rTu3z2SJ5ROt0unpaTZB6n0xeFn8tekMO8Y4AAAAAMBE7LIqPwjF/Ku/NHxBf5PWgv9Pf/4ze/bFLyfz/9KTZNkF//6xNr5RhI8L6tUCuytW1rvU6fz8XPfu3dPFxcXa53J1eaVvv/1Wr1+/7izUx9fFv0vTtLHCPi7Wj3Gf3/Q2gBkPbONaHR5W5EdfRUSPtUT4WDUCqLh9fbW/rHL7kN0vZSv+Ly9f64N7Jpc6vb98oSSRHj14p/eX2SRnmkqml7peea0Sp1XqtVo5pSsnt8q/T8s9+ezZhpfZOJ5mZ87FZzj42lkNAAAAAACM3a6r8oNXP8mK+VJHQf8X43mts8jw1wRX+Hc1j21G2jSbx9YL8nGkTRGB01a837hKvu3nVKlz+vDRhzo9Pd1c8L+60jfffKPf/OY3G7ObpyyLFPJFA9+d3wMEXgAbPigjOt4Uxfpoqb+aK/uLMaFW6I9vrzBR4F/ph7/353rzdiXJyaVe3v1Oaep1epooTb3S1OWXvijon9/Oi/nyuk7zODvbf79ZMaPh4wOt5H0zNK94ndUJDAAAAAAAjmWfVfmxOG5H2j0/fwxmEemTJMlRHm/b5rFtmfTtq+nL29eL92naHnOzuXAfVn+mrRn0zjmleRZzmqb510qrVXkZrz7/gz/4XB9++OHGfeR8tr3r6+tZDybOHWaFP/V+oOPzoRE27bVadn/LMUnRbcL9isK/VVf7S5L5F/rg7kuZu1bqvFzq5dyJUpcV+Mv7+fo8QyUOqHXqe8tdFyYww5f35cp+v+PfEAAAAACAXfVZlX/5Wfv3dXMq6G8y+YL/UIsJ0zTV1dWVrq6u5FzaaBBbaRy7V/Z8M4u+3jS2q2gfvl+tVsXPq9VqkPgb56KciXV/k7z55NzFEzV7rfA/YqTPw48ecaTA9D5nIysb1xv2huNQPc++mCCw2vVWrdr7+rGsVrm3+mUxebBh3zW+6X9crST25Kv7q/ugcof27wEAAAAA6NB3Vf7lZ+XPl59J7x9ktws/x7cNBf2v/62bzc8fg4kX/LOiyhAr/Ferld68eaPnz58XRfQ+hXqfN46tN4qNC/TlivpUq3RVrLJfrVaj3dfZ6+hR8DeTWTL7D0742++DDH+gzwcly7IfQ3P2sKK+KPorLvo3V/+3xvyoluXvTZZIiZmc+cqDFfMAlbMCfHgmPerr202XeHlZkqhz1iF/Hdtk+G96/G+vXuv+7bu8zwEAAABgJvquyg9CEf/9g/w+L7uL+Ymkr/91CvqbzCPDf4A60Gq10suXL/VnT/5Mb9+8LYv0UQxONhGQNuJv5qjvSlurrWadqxC5tM/ffWyNiIGxjj3jOeCUl9Z5E6vcJo72MWvJ8ldW7DeLiv4WPaD5YnpBYUKg2ET8+5Z9t8NLTKIzFxIzpb6Z5d85+Df/eN23BwAAAABMyrar8qWsiP/tp+Xt3/9R9X5nT6QzZQX9sHy4taBPMX8rEy/4W7HKv80+cSvOO11eXurr336tFy9eVB91gbEFzrme1SNbzP7Zpo7VVrQsezUAaH5Aos+N9yOJi7H2hrxxvI9qq/yj/J1Q7I+z/CXJkuxLrjxzzVQr/Ms34n06FuHX9uG2L9GKWJ/6Pu9q2mtdxX4AAAAAwCTssipfyor54T7f/vXmRMAH/4f0gZr5+X824/z8Megs+H/95rke3x135rflYcZxpE9oNLj3tvMiTnKS8C6RKn0J1hX0u5pZztE+sT5lnA9FMaDNu9+8KhukSxpJub9y7MmvrN8oKsg3G/fGx5dwu0Qm77LV9aksO5uqVsyvZ/hXn9OBxhEfF++tOGPLe61f3Q8AAAAAGKV9VuUXPq1u4/xltaAvZQX9O5Je/GH2MwX9mzX5pr1DFZjDdk+SE94l6h8/s6SCv7Rf3EhW9Oe9BXR/SDS6uLS2VfxSLc9faj8ToPUMKKus8E8SydKwPV+r9kcXVtlE5efqVGL//Xd6elKu7M9nFrrGc9rzAgAAAMDN2ndVviS9+0H7duLIHSlaof+HZTFfoqA/VrPI8B+u4K9BGgJPUVjN3icmaTmRPn7Llpjl/eJ9CmDD58z7UVWYKzn9RdPelpX9VpT5y2K9xbE+ZVNf5QX+rBG9V5o3SQ8r+K3jhIKu66R64b/XzpZZUplMLxqx+1Xvx80aLXP+EgAAAADs4hCr8t/9oHt7D59WtxOK+RIF/bk4ndOLOVScT7m9ZJF5/W2y4vTmAvWSVvh77/eqaO06YQAshc8rx2OaGAur64tC/poxsK3QX79t/o1OEsm5fLW/s+6onmLbXgft1httP5wwEOYkismJnn8HRjUAAAAAaHeoVflt24wnBx5qi4I+xfzZmUWkzxCr8IuVjQkFf6l//MzSCv77FCKdd1TGgA2fsfEdeMrLPPQmWuVvlbGwuLSW68JrVHm3xMpCe5JYscp/01NZvxO3f3lW6Qps+XMzpdv/BXkTAwAAAFiEQ6/Kb9t2mCB4WNtmHLcjkZ+PmRT8h4h6IMO/Ko70Wb/jRMG/9wZEpA+w/kNWrPIf0ZGnOsaZGtn8VmvoGzfojbP8yybAWUHdSUoSr8Tl8T617P5tx5dtd5xX2ZC4Huuj3uM6YxoAAACAeRliVX7bth99077tuKD/StJzCvrYYPqRPqbWWIWDbLpjtXqfHPu56VvwNy0s0ucA+/SYPv3xZ3r65RNGPkzjM6YRR19Vl8JXjxlRtn+c629qm6DOJwASKXFSanmxP8kmAeICutUfXxvmAnrsttXV87aDX/trqb1ev36APMg4CQAAAABDGXJVfv0xLt51TxbQEBeHNv2mvRsKzLsW58N9aNqbKQr+IsM/fm/tu08BbPygjSzDv746P4rsUbzKvxgUq9dXmvZKJ7ceSvpKJpM3r8QkF5r9ms+idLzPt+j77a/w7db7On++ZZJP/jzUWOnvOx4bAAAAAMZgyFX5fR6Hhri4SbOI9Alfh23Ym/UGoGlvpliN7vv8TZaxT7z3vYr23e9LT9Ef2PDZ2SGZ5jjHn47J5krTXiuX4dcnBhoxQImUOJMzZYX+JN9WEprz+o5RpOVnn9fe/S6vK3t+XnGMT/l6rGuMq41zY/27AQAAAJi2Y6zKb3u8+mPREBdj1lnw/+r1Mz2++2jUT76tAeJht88K/6B3hr8kBgn6AAAAIABJREFUs2Xss/1X+O9YkQMWIow5Y4v0sdpxqBJ/Ex9A4uNUfGaAtW3T5BMvc1nx39Iyxz8xaVWfb22t9G+8atMerxwAmzn+1YmLrhX9xPgAAAAA2MWxVuW3PWafuB2JhriYhulH+gzVJNaywjUr/DNZwX9z5vzSIn32KWxl919mTwig34dkxMXjNf1jrCXbv3psiYrnYfV8scI/i/GxREryHP++Z075lu+23N3Zs7F8jX/8XPMnX0xatPxdmMIEAAAA0ObYq/K7HpeGuFiKiUf6SBqqYW9e2GCFfyZN017xzEsqXO9f7A8TBn6w9zEw6c+YRtr4NY7qiY4XccZ92bS3FuvTcrRZOZfdrRbrU+b4S0lY5l/ZP2E8iSJ08q99zoowM8mXo1Ll9ak2sVv/2/j6X2+9b96/0Gf3PuHNDgAAAEzUTazK7/vY5OdjqSa+wt8aK8oPVW/eFBe0tFXZzrkyx7/HvkuSZPb59M67nQqR8X28slX+LPAHmt69eK0PPvhglM1gN43/bYV+W3NsMUuy15nH+iQmWdKM1Anh/INk5HvJeS/vnIqpjFofgjCpYdVBrWuw400MAAAATNRNrcpf9xzIzwf6mUGkj2UrH9fYpTgfChubtr0U22X4LyTWp8cq2k37yztP3jWw7jPm/ehiYuJivorIm1pxXu2F/nD/smlvtpo+McmZlCiL9cm2E2J1Qk8Z6bqxoH5NtI7fdndXM/zDVyV6KC/2x2czlI9aDHy8dwEAAIARu8lV+W3PY9uGuKzOB9abeKRPGTgwyPYTW9uAdkmr/LdZ3b+Ugr9zbu8VthT7gTWfD/m9e2UMdwCqZfhb8/fxcSpr1tvetDe8PkuUNe0NBX4zJUl+fTGp0Czmx9n5UaLO1sPT7dPT8KSLvgFm6mjca/kJB77yHOLHBwAAAHBcY1iV3/Z8aIgLHNcsVvgPUVwO2cs0U830XeFfnhmRLGa/7IuiP9D14dBoG/earPUYFB83rBwYG+NkJdPfZ0V9OYsK7JIs6++RyPLif/blQ5Z/o0uuj/7dfaF9PElRvs6yyXDcyDe7Lp9dyLqQM7YBAAAAAxjLqvxtng8NcYGb0Vnwf/LyqX70yeejfwH1+IRD1ReWVrjuo1dmvcWFoZnvjwkW+z/+/qd6+uUT3syYBJ//N9bV4vEK/yJjP/45uixXxjfv78P3RYRPtVmvha981b9F+yd8V+4mHxXe/Zb7OxrH491eFPqbZyzIrPVRKPUDAAAA/YxtVX7X86IhLjAdk1/hH8cmHLp4upTCdW89MuvzdOdFTJQcImpktHElwDg+ZHmG/xhX+JdjXrUI3lzZX1kxXz97zCTnpdNEcioL/XHhP47WUT4J4OWaOTrRAvvty/3lPrdy+X4U7xOv7o/7FWSvq3y80FCYcQ0AAADoyqiXbmZVfttzC8+PhrjAfJzO4UUkSbKxML9t3n4obgzREHiq+mTWh7MilrBPNhXrNzbs9Z6CP7DuM5J9UMb7GbHunxtRP/VYH5WTAN77IhPf8n/KYr9VG/eaGkV2r5bmxrvuMu+z1+FVeWxFTXrjDP9ipX8tzgcAAACYs3Wr8s+ik+qPvSq/7TnSEBdYnuln+KsWm3DIbdv6pr1L0zfDX8oaHi9hf+wbXEGxH1j3AWk2qB3PwSeK6lGZd29RYbw4jqgl1if/Cq+v7EGflfKLFf7Kiv6JVfP9w6EpjjzyRc+D3febz3sGeMsntIvztsrM/iKZqHEGQPlEGNkAAAAwVXuvyv9Uendx3OdJQ1wAsdk07R2u4E+kT+D7ZPjn+y1ZwERJ1sh4333KCn+g8/Oh8Ub6hLFu7e/VvsK/PlHtfRbT41JfFPPN5fE+Sby6P2req3xhvSv75Wb7bHvp6q1OTu+oHtpWlvDrjXuj42M08RFeCyMaAAAAxmgKq/K7nisNcQFsYzYF/zgz/lB5/n0L/kuJ9ckSG/zB9ts89snOuRnF/Sn4A90fk9F/Roq4myij39qb+VpouBsNj+cXDytNexOZXJTjr2J1f77dJL9tYtG2fdvostMYryJeyMtHWUIh5k6K+hZUTlbI/i3/VoxrAAAAOJ6prMqvP9/wnGmIC+CQZpHh37e2vEuO/xKiafpyPVb4l00lF7LCv6Oo1bdAeYhYIGCufDwxJl9ZMX/jxx2VRf51Y2FxLKndt9K81+er+n1W9C+2HWf25yv/E7P8slzx71y2t4qmvXsNK77ltSoq/JcH3coER5iUyP5gW42DAAAAQJcprcpf97xpiAvgmE7n8TJsmAKzqXc0zRJW+Xu3uYoU4nyW0rRXB4n0YSAC2j8fZdF4jGNsaza/alE+9du3vgYfNelVuXK+ntsvRZflpICpGaWzT89eJSbz5evy0Up+qVrgzwf+6DmZSPAHAABAH1Nbld/nudMQF8AYdBb8f/rzn9mzL345+v/XXq4uLK7RoVZMZ6sXeZMEfYvT2UrU+e8417OnweZ9SnEMaP+AlJ+R0eb4y1pX+cfRPnHWfbl6v7z0Pm78m8X5OFO1yJ+v7C8y/vMV/uFMNO/LMXqfE4e8pKR2NI2fc/Ga8sHeilX/5fhfbAgAAACLNNVV+W2vgYa4AKZoPhn+AzSJzbbdf7tzX+WfNantEenTUQCbG+8OUayn4A90ef/itfTdT8qJsZENK9ZyLKpOQKu6ot+qdwqTBT6P9FGqshdA4mVpfhnifSpRQKrE/uTDiXZP8A/38uWGva8W/WuvtflKyu8Z1wAAAOZpyqvy668hvA4a4gKYm9O5vJAhcvzDqsqTkxOlabr4N0vfVbZZE+WFRPpscX0b545bFHv0yceMepjQhyzP8feSnMql52M7/rSt8C/+KcfFcNtQtA+/997n1+fHJ8sK7eUkQJbVryR7pCQJE91RY9/Einr/PmdDxONX3l6gcoAtvo1jh8oDZvULAAAAk7HtqvxGIV83vyq/67XQEBfA0sxmhb/ZEJWgvKiSJBT8lUfYON/zb7KMpr0u65a5M1bBAps/I+G/cR6Eun8umvJGY2PtCJOPrVkRX3GtPC+kZ415s7MbEuVxaZ219f32UtwzIXrS2S+KVf3Vy0qef5Tl37fc/9W73/EmBwAAGNi+q/LHUsivv57wmmiICwBVs1jh34wXOOx2T05OdH19vfg3yzYRNotp2isy/IHBPmNZiP94PycWNe1VGWxjLSvcWxv85l8hrii6Kir8l2ebKYr2SaIIIbNswiCxRF6rMsd/x71ukryZ5Nt74hSpRXGPgug5189uAAAAwDDmtCq/7XXREBcAdjOLFf5FAaWnvrE+lUzmA297irYp9i+h4J817d1tH8W3p+APrPmMhM/VWD8mPYY6qxXGs7vVrosbz5vPI398XlPPm/km+c0SRU10o4mBJGx3n0gfRQ2GVWvMG43tRZRP+fSt8kKo+AMAAOxjbqvyu14bDXEB4PBmUPBvxiYcbttZnE+SbBdPM9eif5+mvWG/WULT3vXvkfK9AqD7cxImxcYa6WO1ine5wr/l94pamls8tpbHM0UF/uKsgbjwn2T1/iRa+Z9EXQTMlJ8Vsf1rOT87KwansllvOX1Qma6IexKobNgengTlfgAAgHZzXZXf9fpoiAsAxzeDSB8bfEX5tgX/ucoKb67Pn0RLKPccogjJCn9g7QekLPiP+XPSkmETT0RbZcV87TayvHl3yMD3tSif2lfZLbeM+kmyCYCkiP4xee3WX6RrTCueu1U6EZfxRVGWf3xmAOMbAABYkjmvyq+/xvA6aYgLAOOztuD/9Zvnenz30ehfhNn2mfF9VuHvusK/7/anpi3CpnW/ybIGlDPnXLWJ8S6FLQr+wKYPSfFhGd+xR1a5zH+o36g4nhS3NSsL95JclOEvq670j5fuW1Tkr+T9h202mvjusLudb4QCZT9Hj2nV8B5FGf5l4Z+3LgAAmI+5r8pf91ppiAsA0zOPDP9apM+hVhWGbbLCP+PSLSJ9bP77LF55vOvkjnNutFElwI1/xpStOPfeZ0Xx0R6D1OglY5UAnOLG1fvmBX3nKv1/y0srC+xFxI9Zvpo/i06zJC7yWzEBkJjttM+yBsKWTbCEy+YrKV9PmHyIk40o9gMAgAlZwqr8Pq+XhrgAMB+zKPgPFemzzwp/aX6r/PuuRt/ljIspcs4daMcyEAEdg840In3UHmMWH5vqk9JRl9vGWGJRhn85poZIn/yKpPzZoga+2nOVf2Ncs9YXW0b31J61VW80yjMzAADAMixpVX7b66YhLgAs1+kcXsSuBf9+sT6s8C/3l+tZdLNFFPy9970bGXfZ9/7AvD9kta+xHoPqkT7WciCJfx/dz8x0tfpEsvetxx+z2nEuKvybopif2m22sbp+rZPTO8W4Vn1tzV1v0TflGQjxEy7jfxjdAADAEJa2Kr/+usNrpyEuAKDNTCJ9NNgKf7Nkr23PaZV/mkf6bHpNQzdRHotsJazf+298zIL/w48eCZiKEOcT/pvC8ahY525tdf8yxz8eM1xbak6R6ePrfXKj4n51dX/4XaLdV/h779pj8cqZh/ZjbuMMhmUcBwAAwGEtdVV+1+unIS4AYBezW+G/bX7/umJt2C4r/Mt91T/D3xayP/bbxsFigYAZunr+bvSRPmV9vvs4svZnmVyo+Gf1/aLYb/kkRzZB4KsNfWvxPUXhPynPAthtTPJtL6Ijy9+asUUDTsIDAIBpW+qq/LZ9EPYDDXEBAEOYTYa/bJhtS/tH+sxllf82TWqXUuzZpxA5lWxy4AY/YQpn0Yx6gb+t/zle2V+5Li/ap668my9+X7ssNhtF+BRbref37x6os3Y8Mus81JZF/7jXAO9gAACWoE/MjDTfVflt+4KGuACAmzSLFf5ZdMIwlYUkSVipmEtdqqL4tu7PsaAoh30L9tn9WeUPdH9G8n4Z3snLDzbWH+5wZGVkTz3mRmqdoHbFhEZWpI8z8rP7qLqaX1ZZ2V9vohsa+e5im7OOrPZ6mu0LOHYCADBl6+J1pO5V+e8fSO+z9kCzKeTX9wkNcQEAY7a24P/V62d6fHfcmd8hM3mfVfibVqwfItJnDqv8vfPtcQ9tf5MFFfz3ud8hYoGAuX/Gtjm76PgHofLStrxbeC3VOb/qynyr/aooqudV/WJFv0lJmABIdh+Dfc+Cv3XOKpSzE5T7AQAYL1bl77ZP4oI++fkAgLGaTYZ/uDxkPMqhM/ynXvR3zvVb0W5E+my7TwG0fL5UnVTz3o9w0bj1uIVVblofH/P+3+VtGlV+Hx+YirPaqnH+VjkLQDum+tTHI59dufH1xRMYcR7RoY/LAABgPVbl9983NMQFAMzVTDL89y8wtxXjs2K/EemT61vwL+IsFuAgkT6iGAa0f0AkLz/+fhdW/d5qzWzD8aR50+w2zm2ayLCiqG/yxep5qzftLf6TEoW2v9vts0qkzzb7Oy7yqxoxtMmrqze6f/su73cAADZgVf5u+4eGuACApZlBwV/SUAXmfNuHWuEvTXuVf1HwFxn+8d9zr33qnaj3A+s+ZNHE2mjr/dUV/PXxsO37OA4nW+HvO45Bze/LYr8VsT6qF//z6/0OK/wr45rfcIisHZAtfm3MlQMA0Aur8rfbTzTEBQBgvdlE+hyiwFwvxofVl4cs+E9ZsfLT9/l7LGWv7Lnq2Iu4C2DT5ys07tXYG1xbr6vjte9mFjXt3TCpEQr70Uatkutv5fhruzXuTRLrM8w3xvy4yF/G+1PxBwCAVfnb7ysa4gIAsJ8ZFPzbohMOtOWw3QPXLKa6yt+5tHfmvNkyJkn6NDFef38y/IHuwTJc5IX/Mdf7O1bjN64qon3KY4tzceNe33Wky+J84g3GDYMt/nH3hrnedUxitp6BYN37IDqOMsYBAOaIVfn77S8a4gIAMJxZZPhnl4fZXlyML5r2DlC8nmLRP807S27M8Dcy/Le5/7F9+uPP9PTLJ4x+mM5nzHlppP0uTFa5rEbvtOf4x8V6k8mF2KLiRdcfo/a9xSv781gfWaVhr+24wt+HmQffsrfXFP3j5sHFHtn1SQAAcMNYlX/4fUZDXAAAjmdtwf/Jy6f60SefT+SlDFNUGLJ4PbWiv0vd3iva52b/gj8r/IGNn7G81D+Fz0rb2vqucT5c75y26FFQj50rJwFk1TPTsu37Lfd3vJ933N+1SYC6Ty4+lCR9dP6BHt6+R8NeAMDRsCr/cPuOhrgAAIzXbDL8h2isG4omQ2b4T6noXzTt7bnCP0mSMvd/pvZd3e+cL1fUAqh+RlTG+ew7uTbsQah22T4wFuNjdlOLxoIsHszM8tcc7YCOx6oW+VVd3S/tHOrjvcueUP48fW2lv9+0I+LXaabvXDySS51++OC7kkRxHwAwmD6r8uuFfGnZq/Lb9h8NcQEAmL7ZFPyH2q5p+Ka9Uyn6py7tXXRbSqzPISJ9wopaI/oCaPmQaPQF/0asT/ZDdw9fq97u1tkncv7/1UnHgnzfuH/bM7CoeW/cOLfH2H79Urr4TvFYTl5JzwmD0Cz4vs7k7JbunN7WvVvn8t7r3ukF718AwN52XZVPIb99P9IQFwCA+ZtFwT+OMcgaBO6/yVBYShIbKi2o8XhjL/i61G1V7Kfgv/n9Vd7f6yhvNGBCVt+8z8J8vMa9wr9tDFQUa7Mh0iec7XOS5Lfz6nccq4X7V4v+u43BWb+E7ElUn0L50/nqRM5LH7y7kPfSucv/p8QJ71kAwHZYlX+8/UhDXAAAlmMeK/w1TIHZ8nyEIZr2TlWI9dm03w4dszRW/gCNRLPIEnpbAus+Y/0z7kd6nLLu5r4h0mf7Y19tJX8t3idE/Gyz33yYbTCTvOTSVC5d6dal9PD9Ld26usWbEgCwEavyh92fNMQFAADrnM7pxSSJKU0Pt71Klv8RTGGVv5eX25Q5XxSblrHCf+8ipBeNe4FNnw8vOY2330Wxor/HuBffJuT2r1Kv240Xnl9uGG+z7aiZ6S8pkcltMUjdu7jQ5bu38rWD6ak70a2rM96PAABW5R9xn9IQFwAA7GI2Gf5mawKT99z2MVeqh8LvWIvlZdzDmn2WV50Ws8J/z2L93BsbA3t9xkKkT1bxl5ffuSHtGI5V1bEyjCP5Cv+iQa6PXn/YC15tdw4r/Ksp/lZECVnLCv/T24+yIsKdvyBJOjm9U/zu1q1bjWI/AGAZWJU//L6lIS4AADiGWRX851RgHutq/z4F7vC3WMIK/z4RR333K4COMUde3rlq3MzoD0x5gb/+XK0cJytjSVrW5cPC/mJU8L0fsmjaK5Ps5KFObjudntzX6a17kqrFfQDAcrAq/zj7l4a4AABgDNYW/H/685/Zsy9+OYlKZD16J2ve6w+y3SWsVO9rmwK3JQuJ9Nnz/hT7gXUfklD0z5vbyo+2N2x85kH9LITq76rXe0mpc3Jpy1yGr11W7ltu7P31HV2nTq+uPpJzXunphU5O6aMLAHPHqvzj72Ma4gIAgLGbzQr/+PKg207sxlaqj3OVv+/19zBbRrPjQxTsKfoD60acPOomfDk/+ip2V+RQYzzPf/belKa+6K8bWoPEQT7xCPHm/V19++pc3768revVSi9f31JKNBgAzA6r8sexn2mICwAApmY2Bf+hImRMpuQGV6qPLdPfuX7F6WM2O75JUyz4f/z9T/X0yyeMfpjOZyz+nMxkbqw+KeCcdHJqWq3KF/jm7QdaOacXr+7o+atzffPittJVqlW6UrpKlbpU6SqVtOKNAgATwqr8m93fNMQFAABzdzqnF1MW5lu6FO5oqGbA2xrLav++Gf4yLaZp7+7vNR9tA8CmMSfk+Y/NNiOztWT637n7sV5dncg/T/TizR2lq1S/e3WeFfXTssAfCvumbIwtI32MNwoAjASr8m9un9MQFwAAIDObgv9QhXnLC9dJksjdcGTCGIr+fTL8zUym5azwd45IH2Doz1lY3e/dxD4rbYemWgzd3bsf6u3qgV79rizum6WN+4ZCf3Zh1esAAINiVf7N73sa4gIAAPQzm0if4SJkrIgMciPISB5DxE+f4nSSLKPg75zbe8UxBX9gw3iTF/q9xrnCPz9UxBflsSn/r29Rvu229UK/xcv7KfYDwN5YlT/ufU9DXAAAgO3Mp2mvDdS018qC/5jcVOG/f4F7OSv8960/7hcLBMz9Q1ZG+fgeZxiN+ljV8kNlnGxb0R/fNirw17832aCTIZcnKe9FAJPDqvzx/Q1oiAsAADC8+UT6DFRgHnse/bEL/30K3OUkyQJW+Ht3oKa9DEZA5+dDvtK8dyrHpM5jSsttWq+3Ncc36/geABaCVfnj+jtsm58v0RAXAABgKBsL/l+/ea7Hdx+N+kVYvrrfBiowJ5YoORl3A9pj5fv3LXBnRf8FNO11/iAFfwDtVm8upXv3pDz6ag6fF9Oa4n30c1uhv7HKP76OoQTADLAqf5x/j40F/XvSi++Snw8AADAGM1nhb1nRX8NF+pwk4y9eH6Pov02BezGRPvtvhaI//v/27mW5jcQ6A/DpG0CKo9ickWqcspPyRpXN5GWyzy5P4NfIe/gF5gFSla2rshlXUlMTL2ylbMpDmdKMNJqLhM4CaLABNG5kg+hufJ+LBfAiWuhuQPbPw/+w/tkxb+4fzL6LptqeWD/9P39/aWHv8vLeUuIPdJyp/O6eEwtxAQCGYzgd/nGYnv3bepqsF8eiHoYdInCfTPaZ8Bf473ZMBf6w6Tk2f4uyt1PsK5P6ScOW3+pzTV39DRU+Cwt+DzDhP/6Qxfh9HqP3WYzeZy5GYC1T+f04LxbiAgCchsEE/gcLl5P+hteH6Pcv96n0GUiHf5qmURRFjEajKIoiiqKIPM8jz/O4uLiI8Xjcynl6KJefPvHKR59eyG4D/0k5rRWLSSTR4d+6SlZfD2d31nx585T/8vda+LqlOp/7vtqOP0wD/cffT1/PBPxAxVR+f8+NhbgAAKdpOEt7l0L5JElaCVKrDuU07W8ffZvB/2RSxk5jpAeqWDqULMsWAv15qF/kUeRFZFkWeZ7XbtPIsmnof35+fsfzcnt+TPjDmudJ/c7srSzXZufd+7dp0+tgsni7EvzXu/xrr6vLk/37vtYK94EIU/l9OkcW4gIAsI98SA/mEFP407C/34F/ZTlUvsvxmobTOxy3mB63Llmc0s8jz2+D/ZVAP88iS7PZ+1mkaRZpls4/lqZpZFnWyjUn8IdNT5CY1/nM/1OWET3+BaLFSf3Vj63cbajwWZjsT5b+UI1wH06Tqfx+nScLcQEAaNOgKn0OFfgfaj/Asd1l8n8ymcSknOx83B76OhiNiiiK1eqdomia0s9qb2mk6e37VaCfpunhFyEL+2HDE2Spx38gPyBbmcpPYuX1OGkq7q+9u1zrU4X7evdhuEzl9/N8WYgLAMBDEvjvIE3TQQb+lX3Cs8lkslujTxIHOWZZls0m9YvIiyKK/HZaf/q5PNJ0NdivT+fXA/3q/rGPv9Af1jw/qkW9ZSz0+ff/H6763aT50xsn+5PIfooYvUsj+yGN/MeRiwV6zlT+8M6XhbgAABzD1sD/xZvreHpx2f1HktxORrbV3199r/rtqSvLMiaT6eLezcfk7sermsiv6neqKf3VPv2qRz9bmM5fntDvQqi/7ZgK/GHDcySmy3onQwr8Y/2C3oWPz7r8y3fvI978FOnbn2I0iUi+q37TKnWBQMeZyh/GebMQFwCAvhjO0t44XKVP35f2tmkymex83DYds8UFubd9+lWYv1q9k84n95en86vp/U31O10OCCeTyXSKGVh97lad/fWwf4BPl/kPlyOJn97+EJP37+Pd/72Osizjw82PtX/rgC4xld//c2chLgAAQzOYSp/67SG+v8B/qpru3zbhnyRJ5Hkejx8/XpzSb+jTz7JsYUnuPMyvBfnzcP8Onfq9mAaW98P652894y+jcz8g2+lvk0Rj9dz3334Xkw+T+NsfrqKclPHDi7dOOnSAqfzhnEMLcQEAODU6/I/4vftoGvhPtoboRVHExx9fxmg0aliQu7gkdznQb3NRbh/C/uqHKEDTk/h2yr8sp9U+5Y6/adSpf6ciibevvo3Jhw/xl//+Y5RlGW/+9Mr5hSMwlT+s82ghLgAALBpOpU8SB670Oc3A/+zsLMbj8fz2448/jrOz861/riiKePz47+L8/FFjr/5D/MZEH0L06u8o8IfNz5PbOp/+FGB9e/M6Xr34W7z683W8+t+vnUg4MFP5wz2XFuICAMDuBjLhH1E1G7e5sDdm33b6w4RhVvqkaRpn52dxNj6L0XgU49E4RqPRQsd+tSw3z/M4OzuLRxePtv5wparuOZY+BeiTB55W/vknlwF98eHND1E+mXX6VDcdfH6/vr6Jv724jpfPr6IsI67/5y9OHrTIVP5pnU8LcQEA4O4GMuF/wEqfSCJJ0l53+Od5HufnZzEeT6f0p4F+EUVRC/XX9Osv9+znWR6j0WjrsT5mBVJfwv76dL8Jf1jzPJnflgvVPmWUkRxphe2rlzcREfHV734fERFXXzx3ouCOTOUP+7xaiAsAAA9va+D//Jur+OzTZ51/IIeq3Zl3+He80qdeu1NN6FfBfl4U8wn9+ltTsF8tyq337fdpf0Efg3Md/rDpST19K8syytrS8CjL6te7Dkq4D3dnKn/459ZCXAAA6J7BLO099Pc+1iTpwv+5Oj+Ps7OzGI1G82C/mtCvT+oXRR5ZVg/208iypsW5t736fV9K3PfAXOAPG54fsy6fqs6nnPX4t/2qJdyHHf/3iKn8kznHFuICAED/DGhpb7LQs99mfj1dMnv4QDzLsjg7O6uF+qMoinqffh5506R+nkWWZvNwP02bg/2+h/rr9D0sN+EP25/j9TqfKCMm5STSe+xWqcL9mxfXcf2nK+E+zJjKd44jLMQFAIA+G1jgf6BAO4lI06yVb1UUxbx6Z7lPv+rQry/JndftzPrzG6f0ZzU8Qw5+g+AUAAAMg0lEQVT11xlCUF6FmUDD86Oa7q+F/WWUEZOI2CPvf/XyZh7uR5je5/SYyj/dc20hLgAAnJbcIdgsSZLZ4t7dg/R6n/54PI6iKFbqdzZ16adZuhDup2l60qF+kyFNxE/KScj7Yc3z45uf4rur15E9jUjfR8RPk3j/w4/x4/n3kedFRET8/JPLhT+jmodTYyr/NM+3hbgAAECT4QT+Sdwu1520+G2rpb21kD1Jkjg/P4/x2TjGo2mgXwX79Qn9KthvWo67rku/umW9odXflJNSpQ+sMXn9Y7x7/WO8+8ONg8HJMZV/2ufdQlwAAOAuhlPpM5vCT5M0Jskk2sxPi6KIn/3sZ/Hs2bPGKf3bJbnZ/DZNb8P9+nR+FfBvmtKvwl+T/M3HpffXarUIenY7ryoB4GSYynfuLcQFAAAOYXAd/ocIycdn43jy5ElcXFzUpvTTyOq1O7NQv80luYL/xePQt+tx+dzd3k0WrllhP8BwmMp3/uvn30JcAADgoQn8dzAejyNLs3j8+PFK/c5DhPGnHPx3PQxfDvYXT1FT6J+s/PljPMZf/PM/6DUH2JOpfCzEBQAAum5r4P+vv/m35PrzL3sxgpwkhwnFi7yIYrYc8pjKsjyZ0L9LQX9TYL8p2G86R0mSRJqmMRqPoshXlzg/evTIqxHAkZjKZ/lasBAXAADoq3xYDycZfCBeD8KH9liPHfLvUsOz7uvqn8uyLEaj0VKon0eez5Y451nkWX67wDnP4vz83KsRwAGYyqfperAQFwAAGKrhVfqki8HskPvRh1L189Dn6L41PNXH8jyfhvqj6W+ALAf71Vu19yHN0sjrex9m1VCWMwPsz1Q+264JC3EBAIBTNLzAP063575PwfGhQ/59a3iajl/1fp7nMR6PIi+KGBXTqf0qzC+KorbIWbAP0AZT+dz1urAQFwAAOHX50B5Qmp5uqLoconctYD5EyN9WDU9ErPTqrwv251U8S2+CfYDNTOWzz/Wxd39+hEAfAAA4eYOb8I8Qtla60PffVsi/S7C/Sw1PRDT06y9W8NSn9ZuC/SrcF+wD3DKVz67XiIW4AAAAhzOoCf8kSSJN0+q9iCid4Zl1wXtboXUbwX4bNTzVx5IkWQj28yKf9+wvB/r1YH96P400FewDRJjKZ/9rxUJcAACA49kp8P/67U08vbjs9ANJkiQiCeHsno6x1HhzsL9bDU/18TRNG6f1F6f2s8iyxWl9wT6AqXzavVYsxAUAADi+AVX6RCSRCG07dU7a69fPsiyK0eLS3NUqnmmwn+dZpGl9cl+wD5wWU/nc95qxEBcAAKCfBlTpk8yn/HngI99iv36eZ1EUtSqeWqBfFPks0K+qeJYn9wX7wPCZyqfN68ZCXAAAgGEZWId/RJqkzupBjm17/foREXme77E4NxXst+zJP/4irr547kBAh5jKp43rx0JcAACA0zagSp8kQqVPS8dx3bR+xL7BflEUMRoVkRfFfGlufVK/aXGuYB8YGlP5tHUNbQv09ecDAACctkEF/gLh/Y5X/XZ6f35v5euW7y9/rHlxbh55XswD/eVQP8/zSNN0HuhXHwfoC1P5HOI6shAXAACAuxpYpU8SaarSZ/mY1G+n9+f3Nn7d8vdJkmR7DU+eRZ5Nb7Pa4tx6oF/dB+gyU/k85LVkIS4AAABtGFilz2natV9/8fPrp/WTNInRbHHudFJ/Gu4vTOoL9oGeMpXPoa8pC3EBAAA4lkFP+CdJEmVZDurxLd+/T79+mqYLE/t5kUeRF/Pwvh7yp1k6DfiXwnzBPtAlpvI55HVlIS4AAABdt1Pg/+LNdTy9uOz0A5l3+A9g0L/tYD/Ps4WlufVgf9viXME+0AWm8nmI68tCXAAAAPpuUBP+kUQkPUr8N/frzx5Q7BfsF8VopV+/Pqm/EuzPKnnqwX4V7gM8hHVha4SpfNq7vqprzEJcAAAAhmxQHf5JdHNp776Lc5fvL38sz/PFKp7lxblN0/qzYL9pah/gEDZN5VdBa4SpfNq9zizEBQAA4JQNrsO/fv8h+/vXhfX3CfanoX4+r+NZDvaXQ/2qa1+wzzaXnz5xELiXe0/l/yLi3bnjyO7XWnW9WYgLAAAA6w1rwj9pDtDb/u9pvj+/t/L5dX+nau9ANalfTetXt9PFuXlktWW51cfrwX493BfsA/dhKp9jXXMW4gIAAMD9DSjwj4hIWgv8d12cu/j5DcF+msyX5i6G+9NAP8+zhdt5kC/YB1piKp8uXXf68wEAAKB9g630ucufaSPYT9M0RqPRwqR+FezneX15birYB1phKp+uXHsW4gIAAMBx7RT4P//mKj779FnHH8o0N1gXkLcd7E/rdor9Fudmq9361fuCfaCJqXy6cP1V16CFuAAAANBtA+vwv+3xL8tyPnHfFOxvW5xbfTzLsihGxbyOJy/yKBYm9Zdv00jT5oBfsA9UTOXTxevQQlwAAADot3x4D2kx0N812K8qeObT+rNgfyHMz7PIUsE+sJmpfLp+LVqICwAAAMM0uA7/TQF/kiS71fDkWeTzfn3BPjC171T+SpAfpvI5zDVpIS4AAAAQMeDAfzQarYT7Ve9+Fdw3deyv69cX7MOw3XcqX5DPoa7J6rq0EBcAAADYZlCBf5Zl8dFHF/GrX/2qeXHurJKnKdwX7MMwmcqnL9emhbgAAADAfQ0q8C+KIi4++iiKYtQ4qS/Yh2ExlU8frs/qGrUQFwAAADi0wQX+aZrGo/NHgn3Y4OefXHb672cqnz6wEBcAAADommTXL7z+/MvS4YLh+Pzff3uU/967TuV//2h6++7cuePhr9WNdTu/nN7eLPfnAwAAADyw3CEA2mAqnz5fr9v687+NhkDfhD4AAADQMQJ/YCtd+fT1mq2uWwtxAQAAgFMg8IcTZiqfoVy7FuICAAAACPzh5Lx6eRMREb/+T1P5dJeFuAAAAAD7s7QXBqwK97/63e8jIuLqi+cOCp1gIS4AAABA+0z4w4C8enkTNy+u4/pPV8J9jsZCXAAAAIDj2Dnw//rtTTy9uHTEoCPq4X6E6X0ezrZAX38+AAAAwHGY8IceUM3DQ7r3QlxhPgAAAMBRCPyhY4T7HNpdF+KazgcAAADoNoE/HFEV7uvdp007L8T9p+mtQB8AAABgGAT+8ID07nNfFuICAAAAsI7AHw5ENQ93YSEuAAAAAHcl8IcWCPfZlYW4AAAAAByKwB/2pHefTSzEBQAAAOBYBP6wRb13X7iPhbgAAAAAdNXOgf+LN9fx9OLSEWPQVPOcNgtxAQAAAOgzE/6cLOH+6bEQFwAAAIAhE/hzEoT7p8FCXAAAAABOmcCfQdK7P0wW4gIAAADAegJ/eq8e7keY3u8zC3EBAAAA4O4E/vSKap7+shAXAAAAAA5L4E9nCff7xUJcAAAAADiunQP/599cxWefPnPEOIgq3Ne7310W4gIAAABAt5nw5yj07nePhbgAAAAA0G8Cfw5ONU83WIgLAAAAAMMm8KdVwv3jsBAXAAAAABD4c2d69x+OhbgAAAAAwDYCf3ZW790X7rfLQlwAAAAA4L4E/jRSzdMuC3EBAAAAgEMT+CPcb4GFuAAAAADAsSX7fPH151+WDlm/Cff3t9dC3F9Ob1cW4gIAAAAAHJgJ/4HTu7+dhbgAAAAAwBAI/AekHu5HmN6vWIgLAAAAAJwCgX9Pqea5ZSEuAAAAAIDAvxdOPdy3EBcAAAAAYDuBf8dU4f6p9O7vtRBXfz4AAAAAwFoC/yMbeu++hbgAAAAAAA9D4P+AhljNYyEuAAAAAEA37BX4f/32Jp5eXDpqOxhKuG8hLgAAAABAP5jwb0Gfe/ctxAUAAAAAGAaB/x3Ue/e7HO5biAsAAAAAcDoE/lt0uZrHQlwAAAAAACoC/5quhfsW4gIAAAAAsKuTDfy7EO5biAsAAAAAQFtOJvA/Ru++hbgAAAAAADyUQQb+9XA/4jDT+xbiAgAAAADQJXsF/i/eXMfTi8tOPYBDVfNYiAsAAAAAQJ/0asK/zXDfQlwAAAAAAIaks4F/Fe7ftXffQlwAAAAAAE5JZwL/fXv3LcQFAAAAAIBbRwn8t1XznL+LOJ/dtxAXAAAAAAC2O3jg3xTuL/fn/72FuAAAAAAAcC+tBv5VuP/2z9fx8o9X8df/ej6f0E9iGub/OizEBQAAAACAtu0V+D//5io++/RZfPfX22A/IuLNV1fx8j+er9TtPPrIQlwAAAAAAHgIewX+N398Hl/85re3/fm/nH38k4j4F4E+AAAAAAAcy/8D9pX4i6TpOu0AAAAASUVORK5CYII=;" parent="1" vertex="1">
          <mxGeometry x="30" y="110" width="1532" height="363" as="geometry" />
        </mxCell>
        <mxCell id="JTipTrV-5EOtWfRyUD3_-2" value="&lt;div&gt;Brass:&lt;/div&gt;&lt;div&gt;Size: 7x7x0.2 cm&lt;/div&gt;&lt;div&gt;&lt;div&gt;Position: -4, 4, 0 cm&lt;/div&gt;&lt;/div&gt;" style="text;html=1;align=center;verticalAlign=middle;whiteSpace=wrap;rounded=0;fontSize=24;" parent="1" vertex="1">
          <mxGeometry x="470" y="453" width="220" height="87" as="geometry" />
        </mxCell>
        <mxCell id="JTipTrV-5EOtWfRyUD3_-3" value="&lt;div&gt;SiC:&lt;/div&gt;&lt;div&gt;Size: 7x7x1 cm&lt;/div&gt;&lt;div&gt;&lt;div&gt;Position: 4, -4, 0 cm&lt;/div&gt;&lt;/div&gt;" style="text;html=1;align=center;verticalAlign=middle;whiteSpace=wrap;rounded=0;fontSize=24;" parent="1" vertex="1">
          <mxGeometry x="650" y="50" width="220" height="90" as="geometry" />
        </mxCell>
        <mxCell id="JTipTrV-5EOtWfRyUD3_-6" value="&lt;div&gt;Ti90Al6V4:&lt;/div&gt;&lt;div&gt;Size: 7x7x0.5 cm&lt;/div&gt;&lt;div&gt;Position: 4, 4, 0 cm&lt;/div&gt;" style="text;html=1;align=center;verticalAlign=middle;whiteSpace=wrap;rounded=0;fontSize=24;" parent="1" vertex="1">
          <mxGeometry x="380" y="50" width="240" height="90" as="geometry" />
        </mxCell>
        <mxCell id="JTipTrV-5EOtWfRyUD3_-7" value="&lt;div&gt;Carbon steel:&lt;/div&gt;&lt;div&gt;Size: 7x7x0.2 cm&lt;/div&gt;&lt;div&gt;&lt;div&gt;Position: -4, -4, 0 cm&lt;/div&gt;&lt;/div&gt;" style="text;html=1;align=center;verticalAlign=middle;whiteSpace=wrap;rounded=0;fontSize=24;" parent="1" vertex="1">
          <mxGeometry x="700" y="410" width="230" height="90" as="geometry" />
        </mxCell>
        <mxCell id="JTipTrV-5EOtWfRyUD3_-8" value="&lt;div&gt;Aluminium:&lt;/div&gt;&lt;div&gt;Size: 20x20x1.5 cm&lt;/div&gt;&lt;div&gt;&lt;div&gt;Position: 0, 0, -5 cm&lt;/div&gt;&lt;/div&gt;" style="text;html=1;align=center;verticalAlign=middle;whiteSpace=wrap;rounded=0;fontSize=24;" parent="1" vertex="1">
          <mxGeometry x="200" y="473" width="220" height="87" as="geometry" />
        </mxCell>
        <mxCell id="JTipTrV-5EOtWfRyUD3_-9" value="" style="endArrow=classic;html=1;rounded=0;" parent="1" source="JTipTrV-5EOtWfRyUD3_-8" edge="1">
          <mxGeometry width="50" height="50" relative="1" as="geometry">
            <mxPoint x="410" y="540" as="sourcePoint" />
            <mxPoint x="464" y="310" as="targetPoint" />
          </mxGeometry>
        </mxCell>
        <mxCell id="JTipTrV-5EOtWfRyUD3_-10" value="" style="endArrow=classic;html=1;rounded=0;" parent="1" source="JTipTrV-5EOtWfRyUD3_-3" edge="1">
          <mxGeometry width="50" height="50" relative="1" as="geometry">
            <mxPoint x="520" y="280" as="sourcePoint" />
            <mxPoint x="570" y="230" as="targetPoint" />
          </mxGeometry>
        </mxCell>
        <mxCell id="JTipTrV-5EOtWfRyUD3_-11" value="" style="endArrow=classic;html=1;rounded=0;" parent="1" source="JTipTrV-5EOtWfRyUD3_-6" edge="1">
          <mxGeometry width="50" height="50" relative="1" as="geometry">
            <mxPoint x="470" y="290" as="sourcePoint" />
            <mxPoint x="520" y="240" as="targetPoint" />
          </mxGeometry>
        </mxCell>
        <mxCell id="JTipTrV-5EOtWfRyUD3_-12" value="" style="endArrow=classic;html=1;rounded=0;" parent="1" source="JTipTrV-5EOtWfRyUD3_-2" edge="1">
          <mxGeometry width="50" height="50" relative="1" as="geometry">
            <mxPoint x="480" y="370" as="sourcePoint" />
            <mxPoint x="530" y="320" as="targetPoint" />
          </mxGeometry>
        </mxCell>
        <mxCell id="JTipTrV-5EOtWfRyUD3_-13" value="" style="endArrow=classic;html=1;rounded=0;" parent="1" source="JTipTrV-5EOtWfRyUD3_-7" edge="1">
          <mxGeometry width="50" height="50" relative="1" as="geometry">
            <mxPoint x="420" y="517" as="sourcePoint" />
            <mxPoint x="558.4464993394981" y="320" as="targetPoint" />
          </mxGeometry>
        </mxCell>
        <mxCell id="JTipTrV-5EOtWfRyUD3_-14" value="&lt;div&gt;Detector:&lt;/div&gt;&lt;div&gt;Size: 40.96x40.96 cm&lt;/div&gt;&lt;div&gt;&lt;div&gt;Position: 0, 0, -53.6 cm&lt;/div&gt;&lt;/div&gt;" style="text;html=1;align=center;verticalAlign=middle;whiteSpace=wrap;rounded=0;fontSize=24;" parent="1" vertex="1">
          <mxGeometry x="90" y="10" width="260" height="90" as="geometry" />
        </mxCell>
        <mxCell id="JTipTrV-5EOtWfRyUD3_-15" value="&lt;div&gt;Source:&lt;/div&gt;&lt;div&gt;&lt;div&gt;Position: 0, 0, 100 cm&lt;/div&gt;&lt;/div&gt;" style="text;html=1;align=center;verticalAlign=middle;whiteSpace=wrap;rounded=0;fontSize=24;" parent="1" vertex="1">
          <mxGeometry x="1400" y="210" width="240" height="50" as="geometry" />
        </mxCell>
        <mxCell id="JTipTrV-5EOtWfRyUD3_-16" value="" style="endArrow=classic;html=1;rounded=0;" parent="1" source="JTipTrV-5EOtWfRyUD3_-14" edge="1">
          <mxGeometry width="50" height="50" relative="1" as="geometry">
            <mxPoint x="130" y="40" as="sourcePoint" />
            <mxPoint x="164" y="150" as="targetPoint" />
          </mxGeometry>
        </mxCell>
      </root>
    </mxGraphModel>
  </diagram>
</mxfile>
